<?xml version="1.0" standalone="no"?>
<!DOCTYPE svg PUBLIC "-//W3C//DTD SVG 20010904//EN"
 "http://www.w3.org/TR/2001/REC-SVG-20010904/DTD/svg10.dtd">
<svg version="1.0" xmlns="http://www.w3.org/2000/svg"
 width="512.000000pt" height="512.000000pt" viewBox="0 0 512.000000 512.000000"
 preserveAspectRatio="xMidYMid meet">

<g transform="translate(0.000000,512.000000) scale(0.100000,-0.100000)"
fill="#000000" stroke="none">
<path d="M1045 5102 c-99 -34 -174 -117 -195 -215 -8 -37 -10 -701 -8 -2357
l3 -2305 21 -46 c28 -60 93 -125 153 -153 l46 -21 1495 0 1495 0 46 21 c60 28
125 93 153 153 l21 46 0 2335 0 2335 -21 46 c-28 60 -93 125 -153 153 l-46 21
-1480 2 c-1383 2 -1483 1 -1530 -15z m2727 -261 c61 -30 119 -88 149 -149 l24
-47 0 -2085 0 -2085 -24 -47 c-30 -61 -88 -119 -149 -149 l-47 -24 -1170 0
-1170 0 -47 24 c-61 30 -119 88 -149 149 l-24 47 0 2085 0 2085 27 52 c45 85
117 143 203 164 17 4 548 6 1180 6 l1150 -2 47 -24z"/>
<path d="M2410 4571 c-23 -6 -25 -12 -30 -80 l-5 -74 -50 -17 c-82 -28 -128
-56 -172 -102 -54 -60 -66 -100 -61 -212 3 -73 9 -101 30 -141 39 -74 151
-178 338 -312 95 -69 180 -151 204 -200 10 -19 17 -63 19 -106 3 -115 -34
-153 -141 -145 -79 7 -95 27 -102 130 l-5 83 -98 9 c-58 5 -129 5 -175 0 l-77
-9 -3 -72 c-5 -123 24 -189 111 -251 26 -19 78 -44 115 -57 l67 -22 5 -69 5
-69 40 -7 c52 -9 208 -9 260 0 l40 7 5 67 c3 36 7 68 10 70 3 2 32 12 65 23
74 25 163 83 192 128 36 52 48 134 35 228 -23 159 -98 252 -349 432 -156 111
-225 174 -242 220 -6 16 -11 55 -11 87 0 51 4 64 28 91 47 53 146 50 192 -6 7
-9 16 -46 19 -83 l6 -67 168 -3 167 -2 0 77 c-1 149 -52 209 -252 291 -27 11
-28 14 -28 86 l0 74 -31 6 c-41 8 -257 6 -289 -3z"/>
<path d="M1240 2070 l0 -560 640 0 640 0 0 560 0 560 -640 0 -640 0 0 -560z
m720 200 l0 -130 130 0 130 0 0 -85 0 -85 -130 0 -130 0 0 -130 0 -130 -85 0
-85 0 0 130 0 130 -125 0 -125 0 0 85 0 85 125 0 125 0 0 130 0 130 85 0 85 0
0 -130z"/>
<path d="M2600 2070 l0 -560 645 0 645 0 0 560 0 560 -645 0 -645 0 0 -560z
m980 -15 l0 -85 -335 0 -335 0 0 85 0 85 335 0 335 0 0 -85z"/>
<path d="M1232 993 c3 -434 4 -449 24 -494 28 -60 93 -125 153 -153 45 -21 58
-21 574 -24 l527 -3 0 561 0 560 -640 0 -641 0 3 -447z m623 47 c5 0 49 39 97
87 l88 87 60 -59 60 -59 -92 -93 -93 -93 90 -90 90 -90 -60 -60 -60 -60 -90
90 -90 90 -90 -90 -91 -90 -59 60 -59 60 89 90 90 90 -90 90 -89 90 59 60 59
60 86 -85 c47 -47 90 -85 95 -85z"/>
<path d="M2590 880 l0 -561 538 3 537 3 53 29 c60 33 101 76 134 139 23 42 23
47 26 495 l3 452 -646 0 -645 0 0 -560z m903 232 l57 -57 -243 -243 -242 -242
-60 60 -60 60 240 240 c132 132 242 240 245 240 3 0 31 -26 63 -58z"/>
</g>
</svg>
