<svg width="110" height="110" viewBox="0 0 110 110" fill="none" xmlns="http://www.w3.org/2000/svg">
<path d="M107.788 43.0299C104.762 30.9241 97.0018 20.2151 86.2152 13.8905C78.5326 9.50606 69.6861 7.41082 60.8395 8.07043C56.5326 8.38084 52.2645 9.31206 48.2293 10.8253C46.7937 11.3685 44.3492 11.9505 43.3792 13.1921C42.642 14.1233 42.9136 15.2874 43.4568 16.2574C43.3792 16.2962 43.3016 16.335 43.1852 16.4126C42.7972 15.0546 42.3316 13.6965 41.866 12.3385C41.6332 11.6789 40.7795 11.3297 40.2363 11.9117C37.4815 14.8994 33.9506 16.4126 30.7302 18.7794C28.5573 20.4091 26.9665 22.3879 25.9189 24.7159C25.6085 24.0563 25.2205 23.4355 24.6772 22.8535C23.358 21.4567 21.9612 20.4867 20.8748 18.8182C20.4868 18.2362 19.5556 18.1586 19.2063 18.8182C17.9647 20.9523 16.6067 23.2803 17.0335 25.88C17.3439 27.82 18.5467 29.1004 20.0988 30.0316C16.0635 31.6613 12.843 34.9593 11.5238 39.1886C10.709 41.7882 11.1746 44.5431 10.2822 47.0651C9.23456 50.014 6.51851 51.9928 4.81128 54.5925C-1.20283 63.7107 -0.271609 75.9329 6.82892 84.1586C10.3598 88.2715 15.2099 91.0264 20.4868 92.1516C19.6332 93.6648 18.2751 94.3632 16.7231 95.4108C15.6367 96.148 15.6367 97.1181 15.9083 98.3209C16.0247 98.7865 16.4127 98.9805 16.8395 99.0193C18.4303 99.2133 20.06 99.4461 21.6896 99.5237C24.9101 99.6789 27.8201 98.9029 31.0018 98.6701C32.5538 98.5537 35.9295 99.6789 36.0459 97.0017C36.0847 95.7988 35.1534 95.2556 34.3386 94.596C33.4074 93.7812 32.709 92.8112 32.1658 91.7636C34.3774 91.0652 36.4727 90.1727 38.4515 88.9699C38.4903 89.0475 38.5291 89.1251 38.5679 89.2027C37.8307 89.3579 37.2099 89.8235 36.8607 90.8711C35.9683 93.3156 38.6455 94.6736 40.3527 95.6824C51.7213 102.395 65.9224 104.025 78.4162 99.7565C89.2416 96.0704 98.4374 88.1551 103.753 78.0281C109.108 67.5519 110.582 54.4373 107.788 43.0299Z" fill="white"/>
<path d="M45.0088 19.7884C55.9506 14.3951 68.8324 13.8907 80.0458 18.702C89.7848 22.8924 97.739 30.9242 101.813 40.702C110.31 61.1887 100.804 85.5168 80.5502 94.6738C67.358 100.649 51.9153 99.1746 39.9647 91.1041C38.9171 90.4057 37.9859 91.8025 39.0723 92.5397C50.1693 100.028 64.2151 102.162 76.9806 98.0882C87.6896 94.6738 96.8077 86.9524 102.007 76.9806C112.871 56.2222 104.645 29.8378 84.0423 18.7408C71.6261 12.067 56.5714 11.873 43.9612 18.0811C42.8748 18.6631 44.0388 20.254 45.0088 19.7884Z" fill="#90AE2F"/>
<path d="M45.8236 16.1411C56.7266 10.7866 69.5309 10.1658 80.7831 14.7443C91.0264 18.896 99.6014 27.1605 103.598 37.5203C111.668 58.4339 100.959 82.6843 80.4339 91.3369C67.164 96.9242 51.8377 95.2558 39.9647 87.224C40.0423 87.3016 40.3139 88.6984 40.7795 89.0088C51.9929 96.575 66.3104 98.5538 79.1146 94.0141C89.6684 90.2505 98.4374 82.2575 103.249 72.1693C112.871 51.9542 104.49 26.6561 85.2451 15.5203C72.9065 8.38097 57.6578 8.03177 44.8924 14.3175C44.6208 14.4339 45.552 16.2575 45.8236 16.1411Z" fill="#90AE2F"/>
<path d="M35.425 18.0423C30.8465 20.6419 26.0352 23.3968 26.1904 33.7954C26.1904 34.067 26.1904 34.2222 26.2292 34.4162C29.4885 25.8024 35.7742 21.8835 36.201 21.6119C31.9329 24.8712 29.0229 30.8465 27.5872 34.3774C28.3245 34.1446 29.1781 33.9506 30.1093 33.7178C36.395 32.2045 45.9788 29.8765 40.5467 14.3562C39.1499 15.8694 37.2874 16.9558 35.425 18.0423Z" fill="#F29A37"/>
<path d="M24.4832 29.5662C25.492 23.8625 21.6508 23.4745 20.0987 21.1077C16.2187 28.247 22.97 28.829 24.4444 30.0318C24.4832 29.9154 24.4444 29.799 24.4832 29.5662Z" fill="#F29A37"/>
<path d="M23.5908 63.5943C24.4444 55.7954 19.2063 55.5626 16.9171 52.4585C12.261 62.5079 21.4568 62.7019 23.5908 64.2151C23.5908 64.0599 23.552 63.8659 23.5908 63.5943Z" fill="#90AE2F"/>
<path d="M26.3069 56.1835C24.2505 49.0442 29.1006 47.9966 30.769 44.7761C36.6667 53.3899 28.1694 55.0583 26.4233 56.8043C26.3457 56.6103 26.3845 56.4551 26.3069 56.1835Z" fill="#90AE2F"/>
<path d="M19.5168 76.6703C20.8748 68.9101 15.6756 68.3669 13.6191 65.1077C8.30341 74.8078 17.4604 75.6227 19.478 77.2911C19.5168 77.0971 19.478 76.9419 19.5168 76.6703Z" fill="#90AE2F"/>
<path d="M30.8078 75.0795C31.3122 67.2418 36.5115 67.9402 39.3052 65.2629C42.1764 75.9331 33.0582 74.5751 30.6914 75.7003C30.7302 75.5451 30.769 75.3899 30.8078 75.0795Z" fill="#90AE2F"/>
<path d="M29.4498 61.8096C28.635 55.8731 32.6315 55.6014 34.3387 53.1958C38.0636 60.7619 31.0406 61.1112 29.4886 62.2752C29.411 62.1588 29.4498 62.0424 29.4498 61.8096Z" fill="#90AE2F"/>
<path d="M23.9788 55.0582C25.2592 49.1993 21.3403 48.6172 19.8271 46.0564C15.4814 53.3121 22.4268 54.2046 23.94 55.5238C23.9788 55.4074 23.94 55.2522 23.9788 55.0582Z" fill="#90AE2F"/>
<path d="M14.7831 60.6455C15.3263 57.7354 13.3862 57.5026 12.6102 56.261C10.5538 59.8695 14.0071 60.2575 14.7443 60.8783C14.7831 60.8007 14.7831 60.7231 14.7831 60.6455Z" fill="#90AE2F"/>
<path d="M25.7637 42.3316C26.7337 40.2363 25.2981 39.6931 24.9489 38.6067C22.6985 40.9735 25.2593 41.9047 25.7249 42.5256C25.7249 42.448 25.7249 42.4092 25.7637 42.3316Z" fill="#90AE2F"/>
<path d="M22.5044 82.374C22.0388 79.4639 20.0987 79.9295 18.9347 78.9983C18.2363 83.1112 21.612 82.2575 22.5432 82.568C22.5432 82.5292 22.5044 82.4516 22.5044 82.374Z" fill="#90AE2F"/>
<path d="M29.993 80.7832C30.1094 77.8343 32.0882 78.0672 33.1358 77.0195C34.261 81.016 30.8466 80.5892 29.993 80.9772C29.9542 80.9772 29.993 80.8996 29.993 80.7832Z" fill="#90AE2F"/>
<path d="M36.7442 63.8661C36.1622 60.8785 38.1799 60.6068 38.9947 59.3264C41.1287 63.0901 37.559 63.4781 36.783 64.0989C36.7442 64.0213 36.7442 63.9437 36.7442 63.8661Z" fill="#90AE2F"/>
<path d="M25.0653 48.695C26.5398 45.2029 24.1341 44.3493 23.5133 42.6033C19.9824 46.5997 24.2117 47.9966 24.9877 48.9666C25.0265 48.9278 25.0265 48.8114 25.0653 48.695Z" fill="#90AE2F"/>
<path d="M26.8502 46.328C25.6085 43.4568 27.5874 42.7584 28.0918 41.2839C31.0406 44.582 27.5486 45.746 26.889 46.5608C26.889 46.4832 26.889 46.4444 26.8502 46.328Z" fill="#90AE2F"/>
<path d="M32.2046 35.1534C33.1358 34.843 33.9118 34.5714 34.9207 35.3086C34.9983 35.3474 35.0371 35.3862 35.0759 35.425C36.8995 37.5978 37.9859 40.4303 37.9859 43.4955V43.6507C37.9859 46.7936 39.2275 49.82 41.4392 52.0705C45.5521 56.1445 48.0741 61.8094 48.0741 68.0564C48.0741 69.1428 47.9965 70.2292 47.8413 71.2768C46.5997 79.9294 40.508 86.9911 32.3986 89.5908C31.8554 89.746 31.3122 89.9012 30.769 90.0564C33.9894 87.7283 40.2364 81.6754 42.1764 77.4461C42.1764 77.4073 42.1764 77.3685 42.2152 77.3685C43.1852 75.5449 43.806 73.5273 44.1164 71.432C44.2328 70.5784 44.3104 69.6472 44.3104 68.7548C44.3104 63.5943 42.254 59.0158 38.8395 55.5237C37.0159 53.6613 35.8519 51.5273 35.1535 48.5396L34.6879 43.8835C34.0282 39.8094 32.515 36.9382 29.8378 35.5414C30.8078 35.6578 31.545 35.3862 32.2046 35.1534Z" fill="#4D4247"/>
<path d="M21.612 35.3862C21.6508 35.3474 21.6896 35.3086 21.7672 35.3086C23.8236 34.5325 23.9401 33.9505 24.2505 32.3209C24.3281 31.9329 24.4057 31.4673 24.5221 30.9241C23.5132 31.0017 22.5432 31.1957 21.612 31.4673C21.5344 31.5061 21.4956 31.5061 21.418 31.5449C21.3404 31.5449 21.3016 31.5837 21.224 31.6225C19.4392 32.2433 17.8483 33.2521 16.5291 34.5713C14.2399 36.8606 12.8042 40.0034 12.8042 43.4955V43.6507C12.8042 46.8324 11.5238 49.8976 9.27338 52.1093C5.23811 56.2221 2.71606 61.8482 2.71606 68.0563C2.75487 79.6578 11.4462 89.1639 22.6596 90.522C22.6208 90.522 22.6208 90.522 22.582 90.4832C15.7143 87.6895 11.2522 81.6754 9.85539 78.9982C7.91536 76.0493 6.79014 72.5184 6.79014 68.7548C6.79014 63.5943 8.14816 59.365 11.1358 55.5237C11.6402 54.6701 12.1834 53.9329 12.7266 53.2345C13.7355 51.9153 14.7055 50.6348 15.2099 48.5396L15.9083 44.7759C16.1411 40.8183 16.4903 39.2662 18.3527 37.4038C20.0988 35.8906 20.5256 35.7354 21.5344 35.3862C21.5732 35.425 21.612 35.3862 21.612 35.3862Z" fill="#4D4247"/>
<path d="M17.5767 97.1182C23.94 94.0141 23.4356 90.2117 23.4356 81.2487C23.4356 77.485 22.6208 73.9154 21.224 70.8501C20.7584 69.6085 20.0987 68.4833 19.3227 67.4357C17.7707 65.1852 15.7919 63.3228 13.619 62.0812C17.7319 62.9348 21.612 64.9524 24.522 67.9401C26.1905 62.4692 25.1816 56.9595 25.1816 56.9595C29.0229 59.8695 28.6349 67.7849 28.6349 67.7849C31.0017 62.8572 34.6102 61.6156 35.8518 61.344C31.2345 65.5732 28.2857 72.635 28.2857 80.5115C28.2857 87.03 29.1005 94.0141 34.7266 97.157C31.1569 95.799 27.8977 97.5838 24.328 97.5838C20.7196 97.545 20.9524 97.5062 17.5767 97.1182Z" fill="#4D4247"/>
<path d="M40.896 42.1763V44.7372H39.8096V38.9947C39.8096 38.6843 40.0036 38.5291 40.3528 38.5291C40.4692 38.5291 40.5856 38.5291 40.702 38.5679C40.8184 38.6067 40.8572 38.6067 40.896 38.6067V41.2063H41.284C41.5556 41.2063 41.7496 41.1675 41.9048 41.0899C42.06 41.0123 42.2152 40.8959 42.3704 40.7407C42.642 40.4303 42.836 40.1587 43.03 39.8871C43.224 39.6155 43.3404 39.3827 43.4568 39.1887C43.5732 38.9947 43.7284 38.8395 43.8448 38.7231C43.9612 38.6067 44.1553 38.5679 44.3493 38.5679C44.5045 38.5679 44.6597 38.6067 44.7373 38.6455C44.8149 38.6843 44.9313 38.7231 44.9701 38.8007C44.7761 39.1111 44.5433 39.4991 44.2717 39.8871C44 40.2751 43.7284 40.7019 43.418 41.1287C43.3404 41.2451 43.224 41.3615 43.1464 41.4779C43.0688 41.5943 42.9524 41.6719 42.836 41.7495C43.03 41.9435 43.224 42.1763 43.418 42.4479C43.612 42.6807 43.806 42.9523 44.0388 43.2239C44.2329 43.4955 44.4269 43.7671 44.6209 44.0388C44.8149 44.3104 44.9701 44.582 45.1641 44.8536H43.9224C43.7672 44.6596 43.612 44.4268 43.4568 44.194C43.3016 43.9612 43.1076 43.7283 42.9524 43.4955C42.7584 43.2627 42.6032 43.0299 42.4092 42.8359C42.2152 42.6031 42.06 42.4091 41.866 42.2151C41.7884 42.2151 41.7108 42.2539 41.5944 42.2539C41.5168 42.2539 41.4004 42.2539 41.3228 42.2539H40.896V42.1763Z" fill="#90AE2F"/>
<path d="M47.0265 43.8447C47.0653 43.8447 47.2205 43.8835 47.4145 43.8835C47.6473 43.8835 47.9189 43.9223 48.3457 43.9223C48.6561 43.9223 48.9277 43.8835 49.1605 43.8447C49.3933 43.8059 49.5486 43.7283 49.7038 43.6507C49.859 43.5731 49.9366 43.4567 50.0142 43.3403C50.053 43.2239 50.0918 43.0687 50.0918 42.9135C50.0918 42.7971 50.053 42.6807 50.0142 42.5643C49.9754 42.4479 49.8978 42.3703 49.8202 42.2927C49.7426 42.2151 49.5874 42.1375 49.4321 42.0987C49.2769 42.0599 49.0829 42.0211 48.8501 42.0211H47.0265V43.8447ZM48.6949 41.1286C48.8889 41.1286 49.0829 41.0898 49.2381 41.051C49.3933 41.0122 49.5098 40.9346 49.5874 40.857C49.665 40.7794 49.7426 40.7018 49.7814 40.5854C49.8202 40.469 49.859 40.3526 49.859 40.2362C49.859 40.1198 49.8202 40.0034 49.7814 39.887C49.7426 39.7706 49.6262 39.693 49.5097 39.6154C49.3933 39.5378 49.2381 39.4602 49.0441 39.4214C48.8501 39.3826 48.5785 39.3438 48.3069 39.3438C47.9577 39.3438 47.6473 39.3438 47.4533 39.3826C47.2205 39.3826 47.1041 39.4214 47.0265 39.4214V41.1286H48.6949ZM45.9789 39.111C45.9789 38.917 46.0177 38.7618 46.1341 38.6842C46.2505 38.6066 46.3281 38.529 46.4833 38.529C46.5997 38.4902 46.7937 38.4902 47.0653 38.4514C47.3369 38.4126 47.7249 38.4126 48.2293 38.4126C48.7725 38.4126 49.2381 38.4514 49.5874 38.5678C49.9366 38.6842 50.2082 38.8006 50.441 38.9558C50.635 39.111 50.7902 39.305 50.8678 39.499C50.9454 39.693 50.9842 39.9258 50.9842 40.1586C50.9842 40.3526 50.9454 40.5078 50.9066 40.663C50.8678 40.8182 50.7902 40.9346 50.7126 41.051C50.635 41.1675 50.5574 41.2451 50.441 41.3227C50.3246 41.4003 50.247 41.4391 50.1694 41.5167C50.4798 41.6331 50.7126 41.7883 50.9066 42.0599C51.1006 42.2927 51.1782 42.6419 51.1782 43.0299C51.1782 43.3015 51.1394 43.5343 51.0618 43.7671C50.9842 43.9999 50.829 44.1939 50.635 44.3491C50.4022 44.5043 50.1306 44.6595 49.7426 44.7371C49.3545 44.8147 48.8501 44.8923 48.2681 44.8923C47.9577 44.8923 47.6861 44.8923 47.4533 44.8923C47.1817 44.8923 46.9489 44.8923 46.7549 44.8535C46.5609 44.8535 46.4057 44.8147 46.2505 44.8147C46.1341 44.8147 46.0177 44.8147 46.0177 44.8147L45.9789 39.111Z" fill="#90AE2F"/>
<path d="M56.0283 42.1765C55.9507 41.9437 55.8343 41.7109 55.7179 41.4393C55.6015 41.1677 55.4851 40.8961 55.4075 40.6632C55.2911 40.3916 55.2135 40.1588 55.0971 39.9648C55.0195 39.7708 54.9419 39.5768 54.8642 39.4992C54.7866 39.6544 54.709 39.8484 54.5926 40.0812C54.4762 40.314 54.3986 40.508 54.2822 40.7796C54.1658 41.0125 54.0882 41.2453 53.9718 41.5169C53.8554 41.7497 53.7778 42.0213 53.6614 42.2541H56.0283V42.1765ZM51.6438 44.7761C51.799 44.3881 51.9542 43.9225 52.1482 43.4569C52.3422 42.9913 52.5362 42.4869 52.7302 42.0213C52.9242 41.5169 53.157 41.0125 53.3898 40.508C53.6226 40.0036 53.8166 39.4992 54.0494 38.9948C54.1658 38.762 54.2822 38.568 54.4374 38.4904C54.5926 38.4128 54.7478 38.3352 54.9807 38.3352C55.0583 38.3352 55.1359 38.3352 55.2135 38.374C55.2911 38.374 55.3687 38.4128 55.4075 38.4516C55.4463 38.4904 55.5239 38.4904 55.5627 38.5292C55.6015 38.568 55.6403 38.568 55.6403 38.568C55.7567 38.7232 55.8731 38.9948 56.0283 39.3052C56.1835 39.6544 56.3387 40.0036 56.5327 40.4304C56.7267 40.8572 56.8819 41.2841 57.0759 41.7497C57.2699 42.2153 57.4251 42.6421 57.6191 43.0301C57.7743 43.4181 57.9295 43.8061 58.0459 44.1165C58.1623 44.4269 58.2399 44.6597 58.3175 44.7761H57.0371C56.9983 44.6985 56.9595 44.5821 56.9207 44.4657C56.8819 44.3493 56.8043 44.1941 56.7655 44.0389C56.7267 43.8837 56.6491 43.7285 56.5715 43.5733C56.4939 43.4181 56.4551 43.2629 56.4163 43.1465H53.351C53.2346 43.4957 53.0794 43.8061 53.0018 44.0777C52.8854 44.3493 52.8078 44.5821 52.7302 44.7761H51.6438Z" fill="#90AE2F"/>
<path d="M59.9859 41.6331C60.0247 41.6331 60.1411 41.6719 60.3351 41.6719C60.5291 41.7107 60.7619 41.7107 61.0723 41.7107C61.4215 41.7107 61.6931 41.6719 61.9259 41.6331C62.1587 41.5555 62.3139 41.4779 62.4691 41.3615C62.5855 41.2451 62.7019 41.1286 62.7407 40.9734C62.7795 40.8182 62.8183 40.663 62.8183 40.5078C62.8183 40.3526 62.7795 40.1974 62.7407 40.081C62.7019 39.9258 62.5855 39.8094 62.4691 39.693C62.3527 39.5766 62.1587 39.499 61.9259 39.4214C61.6931 39.3438 61.3827 39.305 61.0335 39.305C60.7231 39.305 60.4903 39.305 60.3351 39.305C60.1411 39.305 60.0635 39.3438 59.9859 39.3438V41.6331ZM58.9771 39.111C58.9771 38.917 58.9771 38.7618 59.0935 38.6842C59.2099 38.6066 59.3263 38.529 59.4427 38.529C59.5591 38.529 59.7143 38.4902 59.9859 38.4514C60.2575 38.4126 60.6067 38.4126 61.0723 38.4126C62.0423 38.4126 62.7795 38.6066 63.2451 38.9946C63.7107 39.3826 63.9435 39.887 63.9435 40.5078C63.9435 40.8182 63.9047 41.0898 63.7883 41.3227C63.6719 41.5943 63.5167 41.7883 63.3227 41.9823C63.0899 42.1763 62.8183 42.3315 62.4691 42.4091C62.1199 42.5255 61.6931 42.5643 61.1887 42.5643C61.0723 42.5643 60.9171 42.5643 60.8007 42.5643C60.6843 42.5643 60.5679 42.5643 60.4515 42.5255C60.3351 42.5255 60.2575 42.4867 60.1799 42.4867C60.1023 42.4867 60.0635 42.4867 60.0247 42.4867V44.6983H58.9771V39.111Z" fill="#90AE2F"/>
<path d="M66.6984 39.4991H64.8748C64.5255 39.4991 64.3315 39.3439 64.3315 38.9946C64.3315 38.8782 64.3315 38.7618 64.3703 38.6842C64.4091 38.6066 64.4479 38.529 64.4479 38.4902H69.6472C69.9964 38.4902 70.1904 38.6454 70.1904 38.9946C70.1904 39.111 70.1904 39.2275 70.1516 39.3051C70.1128 39.3827 70.074 39.4603 70.074 39.4991H67.7848V44.776H66.6984V39.4991Z" fill="#90AE2F"/>
<path d="M73.993 42.1765C73.9154 41.9437 73.799 41.7109 73.6826 41.4393C73.5662 41.1677 73.4498 40.8961 73.3722 40.6632C73.2558 40.3916 73.1782 40.1588 73.0618 39.9648C72.9842 39.7708 72.9066 39.5768 72.829 39.4992C72.7514 39.6544 72.6738 39.8484 72.5574 40.0812C72.441 40.314 72.3633 40.508 72.2469 40.7796C72.1305 41.0125 72.0529 41.2453 71.9365 41.5169C71.8201 41.7497 71.7425 42.0213 71.6261 42.2541H73.993V42.1765ZM69.5697 44.7761C69.7249 44.3881 69.8801 43.9225 70.0741 43.4569C70.2681 42.9913 70.4621 42.4869 70.6561 42.0213C70.8501 41.5169 71.0829 41.0125 71.3157 40.508C71.5485 40.0036 71.7425 39.4992 71.9753 38.9948C72.0917 38.762 72.2081 38.568 72.3633 38.4904C72.5186 38.4128 72.6738 38.3352 72.9066 38.3352C72.9842 38.3352 73.0618 38.3352 73.1394 38.374C73.217 38.374 73.2946 38.4128 73.3334 38.4516C73.3722 38.4904 73.4498 38.4904 73.4886 38.5292C73.5274 38.568 73.5662 38.568 73.5662 38.568C73.6438 38.7232 73.799 38.9948 73.9542 39.3052C74.1094 39.6544 74.2646 40.0036 74.4586 40.4304C74.6526 40.8572 74.8078 41.2841 75.0018 41.7497C75.1958 42.2153 75.351 42.6421 75.545 43.0301C75.7002 43.4181 75.8554 43.8061 75.9718 44.1165C76.0882 44.4269 76.1658 44.6597 76.2434 44.7761H75.0406C75.0018 44.6985 74.963 44.5821 74.9242 44.4657C74.8854 44.3493 74.8078 44.1941 74.769 44.0389C74.7302 43.8837 74.6526 43.7285 74.575 43.5733C74.4974 43.4181 74.4586 43.2629 74.4198 43.1465H71.3545C71.2381 43.4957 71.0829 43.8061 71.0053 44.0777C70.8889 44.3493 70.8113 44.5821 70.7337 44.7761H69.5697Z" fill="#90AE2F"/>
<path d="M80.2787 38.4126C80.5891 38.4126 80.8219 38.4126 81.0547 38.4514C81.2487 38.4902 81.4039 38.4902 81.5203 38.529C81.6755 38.5678 81.7919 38.6066 81.8695 38.6842C81.9859 38.7618 82.0247 38.917 82.0247 39.111V44.7759H80.9383V39.499C80.8995 39.499 80.7831 39.4602 80.6667 39.4602C80.5503 39.4602 80.4339 39.4602 80.2787 39.4602C80.0847 39.4602 79.8907 39.499 79.7355 39.5378C79.5803 39.5766 79.4251 39.6542 79.3087 39.7706C79.1923 39.887 79.0759 40.0034 78.9983 40.1974C78.9207 40.3914 78.8043 40.6242 78.7655 40.8958C78.6491 41.2839 78.5715 41.6331 78.4939 41.9823C78.4163 42.3315 78.3387 42.7195 78.2223 43.0687C78.1447 43.3403 78.0671 43.6119 77.9507 43.9223C77.8343 44.2327 77.7179 44.5431 77.5238 44.8147H76.2822C76.4762 44.4655 76.6702 44.1551 76.7866 43.8835C76.903 43.5731 77.0194 43.3015 77.097 43.0299C77.1358 42.8747 77.1746 42.6807 77.2522 42.5255C77.291 42.3703 77.3298 42.1763 77.3686 41.9823C77.4074 41.7883 77.4462 41.5943 77.5238 41.4003C77.5626 41.2062 77.6402 40.9734 77.679 40.7018C77.7955 40.275 77.9119 39.9258 78.0671 39.6542C78.2223 39.3826 78.4163 39.1498 78.6103 38.9946C78.8431 38.8394 79.0759 38.6842 79.3475 38.6454C79.6191 38.4514 79.9295 38.4126 80.2787 38.4126Z" fill="#90AE2F"/>
<path d="M85.6332 39.0335C85.6332 38.8783 85.672 38.7231 85.7884 38.6455C85.9048 38.5679 86.0212 38.5291 86.2152 38.5291C86.3316 38.5291 86.448 38.5291 86.5256 38.5679C86.6032 38.6067 86.6808 38.6067 86.7196 38.6455V41.0511H89.9401V39.0335C89.9401 38.8783 89.9789 38.7231 90.0953 38.6455C90.2117 38.5679 90.3281 38.5291 90.5221 38.5291C90.6385 38.5291 90.7549 38.5291 90.8325 38.5679C90.9101 38.6067 90.9877 38.6067 91.0265 38.6455V44.776H89.9401V42.0211H86.7196V44.776H85.6332V39.0335Z" fill="#90AE2F"/>
<path d="M96.1093 42.1765C96.0317 41.9437 95.9153 41.7109 95.7989 41.4393C95.6825 41.1677 95.5661 40.8961 95.4885 40.6632C95.3721 40.3916 95.2945 40.1588 95.1781 39.9648C95.1005 39.7708 95.0229 39.5768 94.9453 39.4992C94.8677 39.6544 94.7901 39.8484 94.6737 40.0812C94.5573 40.314 94.4797 40.508 94.3633 40.7796C94.2469 41.0125 94.1693 41.2453 94.0529 41.5169C93.9365 41.7497 93.8589 42.0213 93.7425 42.2541H96.1093V42.1765ZM91.686 44.7761C91.8412 44.3881 91.9964 43.9225 92.1904 43.4569C92.3844 42.9913 92.5785 42.4869 92.7725 42.0213C92.9665 41.5169 93.1993 41.0125 93.4321 40.508C93.6649 40.0036 93.8589 39.4992 94.0917 38.9948C94.2081 38.762 94.3245 38.568 94.4797 38.4904C94.6349 38.4128 94.7901 38.3352 95.0229 38.3352C95.1005 38.3352 95.1781 38.3352 95.2557 38.374C95.3333 38.374 95.4109 38.4128 95.4497 38.4516C95.4885 38.4904 95.5661 38.4904 95.6049 38.5292C95.6437 38.568 95.6825 38.568 95.6825 38.568C95.7601 38.7232 95.9153 38.9948 96.0705 39.3052C96.2257 39.6544 96.3809 40.0036 96.5749 40.4304C96.7689 40.8572 96.9241 41.2841 97.1181 41.7497C97.3121 42.2153 97.4673 42.6421 97.6613 43.0301C97.8166 43.4181 97.9718 43.8061 98.0882 44.1165C98.2046 44.4269 98.2822 44.6597 98.3598 44.7761H97.1569C97.1181 44.6985 97.0793 44.5821 97.0405 44.4657C97.0017 44.3493 96.9241 44.1941 96.8853 44.0389C96.8465 43.8837 96.7689 43.7285 96.6913 43.5733C96.6137 43.4181 96.5749 43.2629 96.5361 43.1465H93.4709C93.3545 43.4957 93.1993 43.8061 93.1217 44.0777C93.0053 44.3493 92.9277 44.5821 92.8501 44.7761H91.686Z" fill="#90AE2F"/>
<path d="M48.3069 50.0529C48.3069 49.6261 48.5397 49.4321 48.9665 49.4321H52.381C52.7302 49.4321 52.9242 49.5873 52.9242 49.9365C52.9242 50.0529 52.9242 50.1693 52.8854 50.2469C52.8466 50.3245 52.8078 50.4021 52.8078 50.4409H49.4321V55.7178H48.3457L48.3069 50.0529Z" fill="#90AE2F"/>
<path d="M54.709 52.575C54.7478 52.575 54.8642 52.6138 55.0582 52.6138C55.2522 52.6526 55.485 52.6526 55.7954 52.6526C56.1446 52.6526 56.4162 52.6138 56.649 52.575C56.8818 52.4974 57.037 52.4198 57.1922 52.3033C57.3086 52.1869 57.425 52.0705 57.4638 51.9153C57.5026 51.7601 57.5414 51.6049 57.5414 51.4497C57.5414 51.2945 57.5026 51.1393 57.4638 51.0229C57.425 50.8677 57.3086 50.7513 57.1922 50.6349C57.0758 50.5185 56.8818 50.4409 56.649 50.3633C56.4162 50.2857 56.1058 50.2469 55.7566 50.2469C55.4462 50.2469 55.2134 50.2469 55.0582 50.2469C54.8642 50.2469 54.7866 50.2857 54.709 50.2857V52.575ZM53.6614 50.0529C53.6614 49.8589 53.7002 49.7037 53.8166 49.6261C53.933 49.5485 54.0494 49.4709 54.1658 49.4709C54.2434 49.4709 54.4374 49.4321 54.709 49.3933C54.9806 49.3545 55.3298 49.3545 55.7954 49.3545C56.7654 49.3545 57.5026 49.5485 57.9683 49.9365C58.4339 50.3245 58.6667 50.8289 58.6667 51.4497C58.6667 51.7601 58.6279 52.0317 58.5115 52.2645C58.3951 52.5362 58.2399 52.7302 58.0459 52.9242C57.8131 53.1182 57.5414 53.2734 57.1922 53.351C56.843 53.4674 56.4162 53.5062 55.9118 53.5062C55.7954 53.5062 55.6402 53.5062 55.5238 53.5062C55.4074 53.5062 55.291 53.5062 55.1746 53.4674C55.0582 53.4674 54.9806 53.4286 54.903 53.4286C54.8254 53.4286 54.7866 53.4286 54.7478 53.4286V55.6402H53.7002V50.0529H53.6614Z" fill="#90AE2F"/>
<path d="M60.2575 55.8343C60.4516 55.5627 60.6456 55.2522 60.8396 54.9418C61.0336 54.6314 61.2276 54.321 61.4216 53.9718C60.956 53.1958 60.5292 52.5362 60.1799 51.9542C59.8307 51.411 59.5979 50.9842 59.4427 50.6738C59.3263 50.4798 59.2487 50.3245 59.2099 50.2469C59.1711 50.1305 59.1323 50.0529 59.1323 49.8977C59.1323 49.7425 59.1711 49.6649 59.2487 49.5873C59.3263 49.4709 59.4427 49.4321 59.6367 49.4321C59.7531 49.4321 59.8307 49.4321 59.9083 49.4709C59.9859 49.5097 60.0635 49.5097 60.1023 49.5485C60.1799 49.7037 60.2963 49.9365 60.4516 50.2081C60.6068 50.4797 60.762 50.7902 60.956 51.1006C61.15 51.411 61.3052 51.7214 61.4992 52.0706C61.6932 52.381 61.8872 52.6914 62.0424 52.963C62.314 52.4586 62.5856 51.993 62.8184 51.4886C63.0512 50.9842 63.3228 50.5186 63.5556 50.0529C63.5944 49.9753 63.6332 49.8977 63.672 49.8201C63.7108 49.7425 63.7496 49.7037 63.8272 49.6261C63.866 49.5873 63.9436 49.5485 64.0212 49.5097C64.0988 49.4709 64.2152 49.4709 64.3316 49.4709C64.4868 49.4709 64.6032 49.5097 64.7196 49.5485C64.7972 49.5873 64.8748 49.6649 64.9524 49.6649C64.6808 50.2469 64.4092 50.7902 64.1376 51.3334C63.866 51.8766 63.5944 52.381 63.3228 52.8854C63.0512 53.3898 62.7408 53.8942 62.4692 54.3598C62.1588 54.8642 61.8872 55.3298 61.5768 55.8343H60.2575Z" fill="#90AE2F"/>
<path d="M70.1906 54.709H72.5574V49.9365C72.5574 49.7813 72.5962 49.6261 72.7126 49.5485C72.829 49.4709 72.9454 49.4321 73.1394 49.4321C73.2558 49.4321 73.3722 49.4321 73.4498 49.4709C73.5274 49.5097 73.605 49.5097 73.6438 49.5485V55.679H65.6509V49.9365C65.6509 49.7813 65.6897 49.6261 65.8061 49.5485C65.9225 49.4709 66.0389 49.4321 66.2329 49.4321C66.3493 49.4321 66.4657 49.4321 66.5433 49.4709C66.6209 49.5097 66.6985 49.5097 66.7373 49.5485V54.709H69.1429V49.9365C69.1429 49.7813 69.1817 49.6261 69.2981 49.5485C69.4145 49.4709 69.5309 49.4321 69.725 49.4321C69.8414 49.4321 69.9578 49.4321 70.0354 49.4709C70.1518 49.5097 70.1906 49.5097 70.2294 49.5485V54.709H70.1906Z" fill="#90AE2F"/>
<path d="M74.963 50.0529C74.963 49.6261 75.1958 49.4321 75.6226 49.4321H79.1147C79.4639 49.4321 79.6579 49.5873 79.6579 49.9365C79.6579 50.0529 79.6579 50.1693 79.6191 50.2469C79.5803 50.3245 79.5415 50.4021 79.5415 50.4409H76.0494V51.993H78.9983C79.3475 51.993 79.5415 52.1482 79.5415 52.4974C79.5415 52.6138 79.5415 52.7302 79.5027 52.8078C79.4639 52.8854 79.4251 52.963 79.4251 53.0018H76.0494V54.709H79.6191V55.7178H74.963V50.0529Z" fill="#90AE2F"/>
<path d="M81.8307 54.7866C81.8695 54.7866 82.0247 54.8254 82.2187 54.8254C82.4515 54.8254 82.7231 54.8642 83.1499 54.8642C83.4603 54.8642 83.7319 54.8254 83.9647 54.7866C84.1976 54.7478 84.3528 54.6702 84.508 54.5926C84.6632 54.515 84.7408 54.3986 84.8184 54.2822C84.8572 54.1658 84.896 54.0106 84.896 53.8554C84.896 53.739 84.8572 53.6226 84.8184 53.5062C84.7796 53.3898 84.702 53.3122 84.6244 53.2346C84.5468 53.157 84.3916 53.0794 84.2364 53.0406C84.0812 53.0018 83.8871 52.963 83.6543 52.963H81.8307V54.7866ZM83.5379 52.0317C83.7319 52.0317 83.9259 51.9929 84.0811 51.9541C84.2364 51.9153 84.3528 51.8377 84.4304 51.7601C84.508 51.6825 84.5856 51.6049 84.6244 51.4885C84.6632 51.3721 84.702 51.2557 84.702 51.1393C84.702 51.0229 84.6632 50.9065 84.6244 50.7901C84.5856 50.6737 84.4692 50.5961 84.3528 50.5185C84.2364 50.4409 84.0811 50.3633 83.8871 50.3245C83.6931 50.2857 83.4215 50.2469 83.1499 50.2469C82.8007 50.2469 82.4903 50.2469 82.2963 50.2857C82.0635 50.2857 81.9471 50.3245 81.8695 50.3245V52.0317H83.5379ZM80.7831 50.0529C80.7831 49.8589 80.8219 49.7037 80.9383 49.6261C81.0547 49.5485 81.1323 49.4709 81.2875 49.4709C81.4039 49.4321 81.5979 49.4321 81.8695 49.3933C82.1411 49.3933 82.5291 49.3545 83.0335 49.3545C83.5767 49.3545 84.0423 49.3933 84.3916 49.5097C84.7408 49.6261 85.0124 49.7425 85.2452 49.8977C85.4392 50.0529 85.5944 50.2469 85.672 50.4409C85.7496 50.6349 85.7884 50.8677 85.7884 51.1005C85.7884 51.2945 85.7496 51.4497 85.7108 51.6049C85.672 51.7601 85.5944 51.8765 85.5168 51.9929C85.4392 52.1093 85.3616 52.1869 85.2452 52.2645C85.1288 52.3421 85.0512 52.3809 84.9736 52.4585C85.284 52.5749 85.5168 52.7302 85.7108 53.0018C85.9048 53.2346 85.9824 53.5838 85.9824 53.9718C85.9824 54.2434 85.9436 54.4762 85.866 54.709C85.7884 54.9418 85.6332 55.1358 85.4392 55.291C85.2064 55.4462 84.9348 55.6014 84.5468 55.679C84.1587 55.7566 83.6543 55.8342 83.0723 55.8342C82.7619 55.8342 82.4903 55.8342 82.2575 55.8342C81.9859 55.8342 81.7531 55.8342 81.5591 55.7954C81.3651 55.7954 81.2099 55.7566 81.0547 55.7566C80.9383 55.7566 80.8219 55.7566 80.8219 55.7566L80.7831 50.0529Z" fill="#90AE2F"/>
<path d="M88.1553 53.1182V55.6791H87.0688V49.9366C87.0688 49.6261 87.2629 49.4709 87.6121 49.4709C87.7285 49.4709 87.8449 49.4709 87.9613 49.5097C88.0777 49.5485 88.1165 49.5485 88.1553 49.5485V52.1482H88.5433C88.8149 52.1482 89.0089 52.1094 89.1641 52.0318C89.3193 51.9542 89.4745 51.8378 89.6297 51.6826C89.9013 51.3722 90.0953 51.1006 90.2893 50.829C90.4445 50.5574 90.5997 50.3246 90.7161 50.1306C90.8325 49.9366 90.9877 49.7814 91.1041 49.665C91.2205 49.5485 91.4145 49.5097 91.6085 49.5097C91.7637 49.5097 91.9189 49.5485 91.9965 49.5874C92.0741 49.6262 92.1905 49.6649 92.2293 49.7426C92.0353 50.053 91.8025 50.441 91.5309 50.829C91.2593 51.217 90.9877 51.6438 90.6773 52.0706C90.5997 52.187 90.4833 52.3034 90.4057 52.4198C90.3281 52.5362 90.2117 52.6138 90.0953 52.6914C90.2893 52.8854 90.4833 53.1182 90.6773 53.3898C90.8713 53.6226 91.0653 53.8942 91.2593 54.1658C91.4533 54.4374 91.6473 54.709 91.8413 54.9806C92.0353 55.2523 92.1905 55.5239 92.3845 55.7955H91.1429C90.9877 55.6015 90.8325 55.3687 90.6773 55.1359C90.5221 54.903 90.3281 54.6702 90.1729 54.4374C89.9789 54.2046 89.8237 53.9718 89.6297 53.7778C89.4357 53.545 89.2805 53.351 89.1253 53.157C89.0477 53.157 88.9701 53.1958 88.8537 53.1958C88.7761 53.1958 88.6597 53.1958 88.5821 53.1958H88.1553V53.1182Z" fill="#90AE2F"/>
<path d="M93.1993 50.0529C93.1993 49.6261 93.4321 49.4321 93.859 49.4321H97.351C97.7002 49.4321 97.8942 49.5873 97.8942 49.9365C97.8942 50.0529 97.8942 50.1693 97.8554 50.2469C97.8166 50.3245 97.7778 50.4021 97.7778 50.4409H94.2858V51.993H97.2346C97.5838 51.993 97.7778 52.1482 97.7778 52.4974C97.7778 52.6138 97.7778 52.7302 97.739 52.8078C97.7002 52.8854 97.6614 52.963 97.6614 53.0018H94.2858V54.709H97.8554V55.7178H93.1993V50.0529Z" fill="#90AE2F"/>
</svg>
