<svg width="61" height="56.07" xmlns="http://www.w3.org/2000/svg" xmlns:xlink="http://www.w3.org/1999/xlink" xml:space="preserve" enable-background="new 0 0 425.05 56.07" version="1.1">
 <g>
  <title>Layer 1</title>
  <g stroke="null" id="svg_1">
   <defs transform="translate(0.00061512 0) scale(0.9701 1) translate(-0.00061512 0)" stroke="null">
    <rect stroke="null" height="56.07" width="425.05" y="0" id="SVGID_1_"/>
   </defs>
   <clipPath transform="translate(0.00061512 0) scale(0.9701 1) translate(-0.00061512 0)" stroke="null" id="SVGID_2_">
    <use stroke="null" id="svg_2" overflow="visible" xlink:href="#SVGID_1_"/>
   </clipPath>
   <line stroke="#f8db95" id="svg_3" y2="56.07" x2="71.75831" y1="1.68" x1="71.75831" stroke-width="1.146" fill="none" clip-path="url(#SVGID_2_)"/>
   <path stroke="null" id="svg_4" d="m9.76892,18.56c0,0 0,0 0,0c0.11641,0.26 0.25223,0.51 0.41714,0.72c0.22312,0.29 0.47535,0.53 0.76638,0.74c1.53276,1.15 3.94831,1.31 6.18924,0.21c1.88199,-0.92 3.17223,-2.49 3.59907,-4.13c0.0485,-0.17 0.09701,-0.35 0.11641,-0.52l0,-0.01c0.09701,-0.69 -0.0291,-1.35 -0.37834,-1.9c-0.43654,-0.66 -1.14472,-1.05 -1.9693,-1.16c0.50445,0.28 0.90219,0.68 1.14472,1.19c0.23282,0.49 0.30073,1.05 0.22312,1.59c-0.16492,1.21 -0.9798,2.19 -1.12532,2.35c-1.27083,1.42 -2.64837,1.9 -2.8812,1.99c-2.17302,0.94 -4.53037,0.43 -5.51987,-1.3c-0.40744,-0.72 -0.52385,-1.54 -0.39774,-2.37c0.0388,-0.33 0.14551,-0.67 0.29103,-1.04c0.26193,-0.69 0.83429,-1.42 1.23203,-1.86c0.12611,-0.15 0.64997,-0.64 0.81488,-0.77c0.9313,-0.77 1.75588,-1.14 1.84319,-1.18c1.38724,-0.65 2.02751,-0.78 2.55136,-0.91c0.81488,-0.21 2.18272,-0.31 2.35734,-0.31c0.79548,-0.02 1.55216,0.02 2.27003,0.14c0.38804,0.07 1.16412,0.25 1.16412,0.25c0.25223,0.07 0.50445,0.13 0.76638,0.18c0.61116,0.12 1.24173,0.21 1.9014,0.25c2.52226,0.15 4.8311,-0.4 6.54817,-1.39c-0.0485,0.04 -0.09701,0.09 -0.14551,0.13c-2.40585,1.54 -5.03482,5.06 -7.08173,9.65c-0.49475,0.09 -1.71708,0.36 -3.33714,1.02c-2.53196,1.03 -4.64678,2.53 -5.11243,3.57c0.71787,-0.9 2.70658,-2.07 5.19003,-2.96c1.23203,-0.44 2.40585,-0.75 3.42445,-0.92c1.87229,-0.29 4.67588,-0.56 7.95482,-0.77c0.35894,-0.02 1.22233,-0.07 1.27083,-0.07c0,0 2.49316,-0.09 4.06472,-0.48c0.0291,-0.01 0.0485,-0.02 0.07761,-0.02c0.57236,-0.13 1.18352,-0.32 1.81409,-0.6l0,0c0.21342,-0.1 0.43654,-0.21 0.65967,-0.33c0.17462,-0.09 0.34924,-0.19 0.52385,-0.3c0.0388,-0.02 0.14551,-0.09 0.15522,-0.09c0.92159,-0.55 1.85289,-1.25 2.75508,-2.1c1.64917,-1.55 2.8715,-3.27 3.53116,-4.84c0.08731,-0.22 0.26193,-0.64 0.26193,-0.64c0.0485,-0.14 0.08731,-0.27 0.12611,-0.41c0.53355,-1.73 0.48505,-3.12 -0.27163,-3.76c-0.54326,-0.4 -1.33874,-0.44 -2.27973,-0.14l-0.0194,0c-0.0388,0.01 -0.07761,0.03 -0.12611,0.04c-0.05821,0.02 -0.11641,0.04 -0.16492,0.06c-0.15522,0.06 -0.31043,0.12 -0.46565,0.19c-0.0194,0.01 -0.0291,0.02 -0.0485,0.03c-0.15522,0.07 -0.31043,0.15 -0.47535,0.24c-0.0194,0.01 -0.0388,0.02 -0.0485,0.03c-1.66857,0.91 -3.59907,2.58 -5.35495,4.78c-0.18432,0.23 -0.51415,0.69 -0.51415,0.69c-1.66857,2.48 -3.98711,7 -3.98711,7c-0.46565,0.04 -5.01542,0.29 -5.8497,0.36c0.68877,-1.39 1.15442,-2.31 1.15442,-2.31c0.47535,-1 0.9992,-2.05 1.57156,-3.13c0.76638,-1.45 1.54246,-2.81 2.27973,-4.03c-1.27083,1.3 -2.64837,3.22 -3.861,5.5c-0.29103,0.54 -1.28053,2.59 -1.99841,4.04c-0.22312,0.02 -0.43654,0.04 -0.64997,0.06l1.21262,-2.43c0.63056,-1.35 1.45515,-2.81 2.45435,-4.28c1.02831,-1.53 2.12452,-2.87 3.17223,-3.95c-0.21342,0.09 -0.43654,0.21 -0.66937,0.34c0,0 0.0097,-0.01 0.0097,-0.01c-1.63947,0.91 -3.98711,1.24 -6.48027,0.76c-0.67907,-0.13 -2.28944,-0.66 -2.46405,-0.71c-1.9305,-0.55 -4.37515,-0.51 -6.88771,0.29c-1.52306,0.48 -2.8812,1.17 -4.01621,2c-0.21342,0.14 -0.42684,0.29 -0.63056,0.46c-1.87229,1.51 -2.9491,3.57 -3.00731,5.42c0.0194,0.05 -0.06791,0.93 0.35894,1.86c-0.0097,0 -0.0097,0 0,0m28.80227,-2.47c0.09701,-0.21 0.32983,-0.71 0.34924,-0.75c0.09701,-0.22 0.33953,-0.72 0.34924,-0.74c0.10671,-0.23 0.35894,-0.74 0.36864,-0.76c0.12611,-0.24 0.24252,-0.49 0.36864,-0.74c0.0194,-0.04 0.0388,-0.07 0.05821,-0.11c0.12611,-0.25 0.26193,-0.51 0.39774,-0.77c0.26193,-0.5 0.54326,-1 0.84399,-1.49c0.83429,-1.42 2.49316,-3.87 2.50286,-3.88c0,0 0,0 0,0c0.0097,-0.01 0.0194,-0.02 0.0291,-0.04c0.0097,-0.01 0.39774,-0.54 1.0186,-1.03c0.11641,-0.07 0.35894,-0.19 0.35894,-0.19c0.39774,-0.17 0.78578,-0.19 1.05741,0c0.31043,0.22 0.42684,0.67 0.35894,1.21c0,0.08 -0.0097,0.13 -0.0097,0.13c-0.0388,0.25 -0.09701,0.52 -0.17462,0.79c0,0.01 -0.0097,0.02 -0.0097,0.03c-0.06791,0.27 -0.15522,0.54 -0.25223,0.81c-0.50445,1.45 -1.35814,3.05 -2.52226,4.58c-0.33953,0.45 -0.69847,0.88 -1.06711,1.29c-0.18432,0.2 -0.37834,0.4 -0.57236,0.6c-0.0291,0.03 -0.05821,0.06 -0.08731,0.09c-0.18432,0.19 -0.37834,0.36 -0.57236,0.53c-0.0194,0.02 -0.0388,0.03 -0.05821,0.05c-0.18432,0.16 -0.36864,0.31 -0.55296,0.46c-0.0194,0.02 -0.0388,0.04 -0.05821,0.05c-0.18432,0.15 -0.37834,0.28 -0.56266,0.41c-0.0388,0.02 -0.06791,0.05 -0.10671,0.07c-0.18432,0.13 -0.36864,0.25 -0.54326,0.35c-0.0194,0.01 -0.0291,0.02 -0.0485,0.03c-0.17462,0.1 -0.33953,0.18 -0.50445,0.26c-0.0291,0.02 -0.05821,0.03 -0.09701,0.05c-0.17462,0.08 -0.32983,0.15 -0.49475,0.2c-0.0388,0.01 -0.06791,0.02 -0.09701,0.03c-0.16492,0.05 -0.32983,0.1 -0.47535,0.13c0.07761,-0.12 0.71787,-1.47 0.80518,-1.65m-10.22485,33.27c0.32983,-0.39 0.64997,-0.77 0.941,-1.16c1.27083,-1.62 2.85209,-5 2.85209,-5l6.11163,-12.33c0.62086,-1.35 1.44545,-2.81 2.44465,-4.28c1.02831,-1.52 2.12452,-2.87 3.16253,-3.96c-0.85369,0.37 -1.87229,1.11 -2.9297,2.12c-2.22153,1.81 -4.34605,4.78 -6.62578,9.59l-4.38485,9.46l-0.63056,1.23c-0.29103,0.7 -0.90219,1.7 -1.61037,2.81c-0.61116,0.96 -2.11482,2.64 -2.43495,2.93c-0.0097,0.01 -0.0194,0.02 -0.0194,0.02c-0.58206,0.53 -1.23203,1.03 -1.9402,1.47c-0.23282,0.14 -0.47535,0.28 -0.71787,0.41c-0.08731,0.04 -0.66937,0.35 -1.05741,0.5c-0.12611,0.05 -0.87309,0.39 -1.81409,0.61c-0.14551,0.03 -0.941,0.23 -1.82379,0.29c-0.21342,0.01 -0.42684,0.03 -0.63056,0.02c0,0 -0.72757,-0.02 -1.07681,-0.07c-1.84319,-0.29 -3.33714,-1.27 -3.93861,-2.81c-1.06711,-2.72 1.03801,-6.16 4.69528,-7.68c0.66937,-0.28 1.33874,-0.46 1.99841,-0.58c0.0097,0 0.68877,-0.13 0.9313,-0.16c3.00731,-0.33 5.60718,0.9 5.8012,2.76c0.19402,1.85 -2.09542,3.63 -5.10273,3.96c-2.53196,0.28 -4.77289,-0.55 -5.52957,-1.92c0.0194,0.09 0.0291,0.17 0.05821,0.26c0.66937,2.22 3.69608,3.22 6.7519,2.24s4.98631,-3.58 4.31694,-5.8c-0.22312,-0.74 -0.70817,-1.33 -1.35814,-1.77c-1.99841,-1.43 -5.16093,-1.68 -8.20705,-0.41c-4.24904,1.76 -6.67429,5.78 -5.42286,8.98c0.66937,1.71 2.25063,2.83 4.21993,3.24c0.57236,0.12 2.04691,0.36 4.20053,-0.02c0.84399,-0.15 1.69767,-0.38 2.56106,-0.7c2.26033,-0.82 4.17143,-2.07 5.54897,-3.5c0.24252,-0.28 0.65967,-0.75 0.65967,-0.75m12.98964,-21.79c0.76638,-1.45 1.53276,-2.81 2.27973,-4.03c-1.27083,1.3 -2.63867,3.22 -3.8513,5.5c-0.29103,0.54 -0.55296,1.09 -0.80518,1.62l-6.86831,13.85c-0.44625,0.99 -1.08651,2.13 -1.89169,3.29c-1.52306,2.21 -3.17223,3.85 -4.21023,4.31c1.10591,-0.17 3.01701,-1.76 4.76319,-4.06c0.80518,-1.06 1.43575,-2.11 1.9014,-3.06c0.0388,-0.05 8.11974,-16.35 8.68239,-17.42m5.14153,8.07c-2.9297,-2.16 -7.45037,-0.83 -10.10844,2.97c3.06552,-2.94 6.8198,-3.92 8.87641,-2.13c0.9507,0.84 1.38724,2.15 1.35814,3.67c0,0.08 -0.0097,0.15 -0.0194,0.22c-0.0097,0.14 -0.0194,0.28 -0.0291,0.43c-0.0485,0.47 -0.13581,0.95 -0.26193,1.44c-0.50445,1.78 -1.15442,2.97 -1.42605,3.46c-0.68877,1.24 -1.68797,2.52 -2.9491,3.69c-0.21342,0.2 -0.77608,0.68 -0.83429,0.73c-0.16492,0.13 -0.62086,0.48 -0.68877,0.53c-0.16492,0.12 -0.61116,0.43 -0.66937,0.46c-0.17462,0.11 -0.61116,0.38 -0.65967,0.41c-0.19402,0.12 -0.38804,0.22 -0.58206,0.32c-0.0194,0.01 -0.0388,0.03 -0.06791,0.04c-1.35814,0.68 -2.03721,0.77 -2.07601,0.79c-1.25143,0.3 -2.31854,0.21 -3.03641,-0.34c-0.0097,-0.01 -0.28133,-0.25 -0.29103,-0.28c-0.46565,-0.6 -0.52385,-1.14 -0.54326,-1.26c-0.16492,-1.01 0.10671,-2.27 0.77608,-3.54c0.64997,-1.26 1.65887,-2.59 2.9588,-3.81c0.08731,-0.08 0.17462,-0.17 0.26193,-0.26c0.46565,-0.42 0.9313,-0.8 1.39694,-1.16c2.04691,-1.43 4.09382,-1.87 4.8796,-0.93c0.32983,0.4 0.38804,0.99 0.22312,1.69c0.41714,-0.66 0.55296,-1.35 0.31043,-1.94c-0.43654,-1.03 -1.9111,-1.4 -3.49236,-0.97c0,0 -0.75668,0.24 -1.43575,0.62c-0.92159,0.48 -1.83349,1.12 -2.70658,1.88c-3.65728,3.25 -5.06392,7.75 -3.14312,10.04c1.12532,1.34 3.14312,1.62 5.35495,0.98c1.73648,-0.44 3.71548,-1.45 5.60718,-2.97c2.27003,-1.83 3.8901,-3.99 4.59827,-5.88c1.42605,-3.4 0.87309,-7.09 -1.58126,-8.9m8.87641,-16.66c-1.32904,0.48 -2.63867,0.71 -3.861,0.75c-2.65807,0.1 -7.16904,0.02 -7.16904,0.02c-1.02831,0.02 -6.22804,-0.24 -7.02352,-0.25c-1.15442,-0.01 -2.37674,-0.04 -3.64758,0c-3.8416,0.14 -7.26605,0.53 -9.60399,1.02c-0.54326,0.11 -1.60066,0.4 -1.67827,0.42c-1.86259,0.54 -3.50206,1.29 -4.78259,2.13c-0.72757,0.46 -1.34844,0.97 -1.83349,1.53c-0.0291,0.03 -0.24252,0.29 -0.31043,0.39c-0.07761,0.1 -0.32013,0.49 -0.32013,0.5c-0.41714,0.75 -0.58206,1.52 -0.41714,2.27c0.32983,1.56 1.9887,2.62 4.21023,2.95l-0.43654,0.87c-0.30073,0.7 -0.90219,1.7 -1.61037,2.81c-0.62086,0.97 -2.11482,2.65 -2.43495,2.94c-0.0097,0 -0.0194,0.01 -0.0194,0.02c-0.58206,0.52 -1.22233,1.02 -1.9402,1.46c-0.24252,0.15 -0.47535,0.29 -0.71787,0.41c-0.08731,0.04 -0.17462,0.08 -0.26193,0.13c-1.22233,0.61 -1.9402,0.79 -2.59987,0.97c-0.13581,0.04 -0.28133,0.07 -0.41714,0.1c-0.08731,0.02 -0.18432,0.03 -0.28133,0.05c-0.72757,0.15 -1.76558,0.18 -1.76558,0.18c-2.32824,-0.02 -4.29754,-1.06 -5.01542,-2.89c-1.05741,-2.73 1.03801,-6.17 4.69528,-7.68c0.13581,-0.08 0.29103,-0.14 0.43654,-0.19c0.9313,-0.38 2.24093,-0.53 2.48346,-0.56c3.00731,-0.33 5.60718,0.9 5.8012,2.75c0.19402,1.85 -2.09542,3.63 -5.10273,3.96c-2.53196,0.28 -4.77289,-0.55 -5.52957,-1.92c0.0194,0.08 0.0388,0.17 0.05821,0.25c0.66937,2.22 3.68638,3.23 6.74219,2.24c3.05581,-0.98 4.98631,-3.58 4.31694,-5.8c-0.22312,-0.74 -0.70817,-1.33 -1.35814,-1.77c-1.99841,-1.43 -5.15123,-1.68 -8.20705,-0.42c-4.24904,1.76 -6.67429,5.79 -5.42286,8.99c0.53355,1.37 1.65887,2.36 3.09462,2.92c1.19322,0.53 2.92,0.54 2.92,0.54c0.51415,0 1.03801,-0.04 1.58126,-0.11c1.10591,-0.13 2.24093,-0.41 3.38565,-0.82c2.26033,-0.82 4.18113,-2.07 5.54897,-3.5c0.25223,-0.27 0.66937,-0.73 0.66937,-0.73c0.32983,-0.39 0.64997,-0.78 0.941,-1.16c0.82458,-1.04 1.76558,-2.81 2.33794,-3.94c0.20372,0 0.42684,-0.02 0.63056,-0.04c-0.0485,0.1 -0.44625,0.91 -0.61116,1.23c-0.38804,0.75 -0.87309,1.54 -1.43575,2.35c-1.52306,2.21 -3.17223,3.86 -4.21023,4.31c1.10591,-0.17 3.01701,-1.76 4.76319,-4.06c0.65967,-0.87 1.20292,-1.73 1.63947,-2.54l0.0097,0c0,0 0.21342,-0.42 0.31043,-0.62c0.10671,-0.21 0.23282,-0.47 0.38804,-0.77c0.31043,-0.05 0.62086,-0.1 0.9313,-0.18c1.08651,-0.25 2.09542,-0.63 2.97821,-1.09c0.10671,-0.06 0.44625,-0.24 0.50445,-0.27l-0.0097,0c1.56186,-0.96 2.41555,-2.44 1.9499,-3.54c-0.33953,-0.8 -1.29993,-1.21 -2.47375,-1.17c0.61116,0.2 1.06711,0.56 1.25143,1.06c0.49475,1.33 -1.0089,3.15 -3.35655,4.08c-0.22312,0.08 -0.44625,0.16 -0.65967,0.23c-0.32013,0.1 -0.73728,0.17 -0.77608,0.18c1.02831,-2.06 2.62897,-5.29 4.01621,-8.08c0.34924,-0.03 0.69847,-0.06 0.81488,-0.08c0.82458,-0.08 3.55057,-0.12 4.17143,-0.1c0,0 0,0 0,0c0.30073,0.01 0.59176,0.02 0.87309,0.04l-7.15934,14.54l-0.9701,1.92l0,0c-0.0388,0.09 -0.07761,0.18 -0.10671,0.26c-0.18432,0.51 -0.18432,1.07 0.07761,1.52c0.17462,0.32 0.45595,0.55 0.76638,0.68c0.14551,0.09 0.36864,0.14 0.64027,0.14l0.0388,0c0.65967,0 1.61037,-0.23 2.60957,-0.68c1.03801,-0.46 1.88199,-1.05 2.30884,-1.57c0.0097,-0.01 0.51415,-0.64 0.52385,-0.64c-0.0097,0.01 -0.44625,0.45 -0.69847,0.7c-0.19402,0.19 -0.45595,0.35 -0.63056,0.42c-0.0291,0.01 -0.05821,0.02 -0.08731,0.03c0,0 -0.0097,0 -0.0194,0.01c-0.09701,0.03 -0.21342,0.05 -0.32013,0.05c-0.32983,0 -0.63056,-0.16 -0.82458,-0.41c-0.0194,-0.02 -0.0388,-0.04 -0.05821,-0.07c-0.0097,-0.01 -0.0097,-0.02 -0.0194,-0.02c-0.10671,-0.15 -0.14551,-0.3 -0.15522,-0.38c-0.0194,-0.08 -0.0291,-0.15 -0.0291,-0.24c0,-0.1 0.0194,-0.2 0.0388,-0.29c0.05821,-0.29 0.15522,-0.53 0.17462,-0.58l7.16904,-15.14l0.0485,-0.09c0.64027,0.02 1.29023,0.04 1.9402,0.07c5.16093,0.25 9.99203,0.21 12.6016,-0.09c0.11641,-0.01 0.23282,-0.03 0.34924,-0.04c0.89249,-0.12 1.60066,-0.27 2.07601,-0.45c0.33953,-0.1 0.66937,-0.2 1.0089,-0.32c3.56027,-1.29 6.19894,-3.62 6.94592,-5.88c-1.13502,1.52 -3.03641,2.92 -5.39376,3.78m-36.15562,11.17c-2.14392,-0.21 -3.72518,-1.09 -3.97741,-2.41c-0.35894,-1.82 1.89169,-3.86 5.15123,-4.8l0,0c0.41714,-0.12 0.86339,-0.24 1.35814,-0.35c0.42684,-0.09 0.77608,-0.15 1.24173,-0.24l-3.77369,7.8zm2.57076,-0.06c-0.22312,0.03 -0.43654,0.05 -0.64997,0.06c0.12611,-0.26 4.02591,-8.14 4.02591,-8.14c0.0291,-0.01 0.64027,-0.07 0.65967,-0.08c-1.41635,2.87 -3.03641,6.14 -4.03562,8.16" fill="#f8db95" clip-path="url(#SVGID_2_)"/>
   <path stroke="null" id="svg_5" d="m113.70543,5.58c-1.9596,0.18 -2.11482,0.34 -2.11482,2.54l0,9.99c0,2.18 0.20372,2.34 2.11482,2.52l0,0.91l-7.68319,0l0,-0.91c1.9887,-0.18 2.19243,-0.34 2.19243,-2.54l0,-4.83l-6.87801,0l0,4.83c0,2.21 0.20372,2.36 2.06631,2.54l0,0.91l-7.50857,0l0,-0.91c1.83349,-0.18 2.06631,-0.34 2.06631,-2.54l0,-9.97c0,-2.21 -0.23282,-2.36 -2.16332,-2.54l0,-0.91l7.55708,0l0,0.91c-1.81409,0.18 -2.01781,0.34 -2.01781,2.54l0,3.81l6.87801,0l0,-3.81c0,-2.21 -0.20372,-2.36 -2.09542,-2.54l0,-0.91l7.57648,0l0,0.91l0.0097,0z" fill="#f8db95" clip-path="url(#SVGID_2_)"/>
   <path stroke="null" id="svg_6" d="m125.35633,21.54l0,-0.91c1.48425,-0.23 1.61037,-0.54 1.21262,-1.69c-0.25223,-0.78 -0.63056,-1.89 -1.0089,-2.93l-4.8311,0c-0.28133,0.81 -0.60146,1.74 -0.91189,2.78c-0.37834,1.25 -0.30073,1.61 1.53276,1.84l0,0.91l-5.63628,0l0,-0.91c1.65887,-0.21 1.9887,-0.49 2.82299,-2.67l5.16093,-13.34l1.28053,-0.34c1.61037,4.54 3.17223,9.06 4.8117,13.52c0.85369,2.29 1.15442,2.62 2.76478,2.83l0,0.91l-7.19814,0zm-2.14392,-12.53l-0.07761,0c-0.70817,1.89 -1.33874,3.79 -1.9887,5.63l3.9289,0l-1.86259,-5.63z" fill="#f8db95" clip-path="url(#SVGID_2_)"/>
   <path stroke="null" id="svg_7" d="m152.2378,26.19l-0.9798,0l-0.42684,-2.73c-0.22312,-1.58 -0.55296,-1.92 -1.83349,-1.92l-13.97914,0l0,-0.91c1.9887,-0.16 2.21183,-0.31 2.21183,-3.01l0,-9.47c0,-2.26 -0.22312,-2.41 -2.11482,-2.57l0,-0.91l7.55708,0l0,0.91c-1.86259,0.16 -2.06631,0.31 -2.06631,2.57l0,11.27c0,0.98 0.0291,0.98 0.9798,0.98l4.55947,0c0.9507,0 1.0089,-0.03 1.0089,-0.96l0,-10.85c0,-2.7 -0.17462,-2.85 -2.11482,-3.01l0,-0.91l7.60558,0l0,0.91c-1.9111,0.16 -2.11482,0.31 -2.11482,3.01l0,10.46c0,1.22 0.09701,1.27 0.77608,1.27l1.61037,0l-0.67907,5.87z" fill="#f8db95" clip-path="url(#SVGID_2_)"/>
   <path stroke="null" id="svg_8" d="m165.54757,21.54l0,-0.91c2.01781,-0.16 2.22153,-0.36 2.22153,-2.78l0,-6.1c0,-0.93 0,-2.08 0.12611,-4.57l-0.07761,0l-6.47057,12.98c-0.20372,0.39 -0.22312,0.67 -0.22312,1.01l0,0.36l-5.8206,0l0,-0.91c1.9596,-0.16 2.19243,-0.42 2.19243,-2.88l0,-9.28c0,-2.52 -0.22312,-2.72 -2.19243,-2.88l0,-0.91l7.52798,0l0,0.91c-1.83349,0.16 -2.03721,0.31 -2.03721,2.78l0,5.3c0,1.04 0,2.41 -0.12611,5.16l0.0485,0l6.47057,-12.9c0.20372,-0.34 0.28133,-0.67 0.28133,-0.88l0,-0.37l5.7915,0l0,0.91c-1.9596,0.16 -2.19243,0.42 -2.19243,2.75l0,9.53c0,2.41 0.22312,2.62 2.16332,2.78l0,0.91l-7.68319,0l0,-0.01z" fill="#f8db95" clip-path="url(#SVGID_2_)"/>
   <path stroke="null" id="svg_9" d="m192.83648,12.93c0,5.61 -3.8998,9.01 -8.66299,9.01c-5.03482,0 -8.53688,-3.81 -8.53688,-8.77c0,-4.46 3.09462,-8.85 8.86671,-8.85c4.57887,-0.01 8.33316,3.49 8.33316,8.61m-13.31947,-0.29c0,4.46 1.89169,8.2 5.11243,8.2c2.39615,0 4.32665,-2.41 4.32665,-7.19c0,-5.17 -2.00811,-8.26 -4.95721,-8.26c-2.52226,0.01 -4.48186,2.76 -4.48186,7.25" fill="#f8db95" clip-path="url(#SVGID_2_)"/>
   <path stroke="null" id="svg_10" d="m213.19888,5.58c-1.9596,0.18 -2.11482,0.34 -2.11482,2.54l0,9.99c0,2.18 0.20372,2.34 2.11482,2.52l0,0.91l-7.68319,0l0,-0.91c1.9887,-0.18 2.19243,-0.34 2.19243,-2.54l0,-4.83l-6.87801,0l0,4.83c0,2.21 0.20372,2.36 2.06631,2.54l0,0.91l-7.50857,0l0,-0.91c1.84319,-0.18 2.06631,-0.34 2.06631,-2.54l0,-9.97c0,-2.21 -0.22312,-2.36 -2.16332,-2.54l0,-0.91l7.55708,0l0,0.91c-1.81409,0.18 -2.01781,0.34 -2.01781,2.54l0,3.81l6.87801,0l0,-3.81c0,-2.21 -0.20372,-2.36 -2.08571,-2.54l0,-0.91l7.57648,0l0,0.91z" fill="#f8db95" clip-path="url(#SVGID_2_)"/>
   <path stroke="null" id="svg_11" d="m224.84008,21.54l0,-0.91c1.48425,-0.23 1.61037,-0.54 1.21262,-1.69c-0.25223,-0.78 -0.63056,-1.89 -1.0089,-2.93l-4.8311,0c-0.28133,0.81 -0.60146,1.74 -0.91189,2.78c-0.37834,1.25 -0.30073,1.61 1.53276,1.84l0,0.91l-5.63628,0l0,-0.91c1.65887,-0.21 1.9887,-0.49 2.82299,-2.67l5.16093,-13.34l1.28053,-0.34c1.61037,4.54 3.17223,9.06 4.8117,13.52c0.85369,2.29 1.15442,2.62 2.76478,2.83l0,0.91l-7.19814,0zm-2.13422,-12.53l-0.07761,0c-0.70817,1.89 -1.33874,3.79 -1.9887,5.63l3.9289,0l-1.86259,-5.63z" fill="#f8db95" clip-path="url(#SVGID_2_)"/>
   <path stroke="null" id="svg_12" d="m242.28247,21.54l0,-0.91c1.9111,-0.16 2.11482,-0.36 2.11482,-2.88l0,-10.53c0,-1.32 -0.0485,-1.4 -0.91189,-1.4l-2.69688,0c-0.72757,0 -0.83429,0.21 -0.83429,1.01c0,6.02 -0.67907,11.37 -2.24093,13.86c-0.55296,0.88 -1.10591,1.27 -1.70738,1.27c-0.75668,0 -1.30963,-0.1 -1.65887,-0.23l0,-0.6c1.28053,-0.88 1.9596,-1.69 2.59017,-3.17c1.0089,-2.26 1.61037,-6.23 1.61037,-10.8c0,-1.12 -0.34924,-1.45 -2.28944,-1.58l0,-0.91l13.6008,0l0,0.91c-1.89169,0.16 -2.09542,0.36 -2.09542,2.28l0,9.89c0,2.52 0.20372,2.72 2.09542,2.88l0,0.91l-7.57648,0z" fill="#f8db95" clip-path="url(#SVGID_2_)"/>
   <path stroke="null" id="svg_13" d="m257.83318,11.34c0.85369,-0.08 1.76558,-0.13 2.61927,-0.13c3.52146,0 5.7915,1.69 5.7915,4.83c0,2.28 -1.05741,3.66 -2.39615,4.44c-1.30963,0.75 -3.24983,1.06 -5.20944,1.06l-6.26685,0l0,-0.91c1.9111,-0.16 2.14392,-0.34 2.14392,-2.72l0,-9.55c0,-2.41 -0.23282,-2.62 -2.06631,-2.78l0,-0.91l7.55708,0l0,0.91c-1.9596,0.16 -2.16332,0.36 -2.16332,2.83l0,2.93l-0.0097,0zm4.76319,4.96c0,-3.09 -1.70738,-3.95 -3.50206,-3.95c-0.42684,0 -0.88279,0.03 -1.26113,0.08l0,5.66c0,1.92 0.53355,2.36 1.59096,2.36c1.37754,0 3.17223,-0.98 3.17223,-4.15" fill="#f8db95" clip-path="url(#SVGID_2_)"/>
   <path stroke="null" id="svg_14" d="m286.43172,5.58c-1.9596,0.18 -2.11482,0.34 -2.11482,2.54l0,9.99c0,2.18 0.20372,2.34 2.11482,2.52l0,0.91l-7.68319,0l0,-0.91c1.9887,-0.18 2.19243,-0.34 2.19243,-2.54l0,-4.83l-6.87801,0l0,4.83c0,2.21 0.20372,2.36 2.06631,2.54l0,0.91l-7.49887,0l0,-0.91c1.84319,-0.18 2.06631,-0.34 2.06631,-2.54l0,-9.97c0,-2.21 -0.22312,-2.36 -2.16332,-2.54l0,-0.91l7.55708,0l0,0.91c-1.81409,0.18 -2.01781,0.34 -2.01781,2.54l0,3.81l6.87801,0l0,-3.81c0,-2.21 -0.20372,-2.36 -2.08571,-2.54l0,-0.91l7.57648,0l0,0.91l-0.0097,0z" fill="#f8db95" clip-path="url(#SVGID_2_)"/>
   <path stroke="null" id="svg_15" d="m294.34774,11.34c0.85369,-0.1 1.68797,-0.13 2.52226,-0.13c3.52146,0 5.7915,1.71 5.7915,4.83c0,2.28 -1.05741,3.63 -2.38645,4.41c-1.30963,0.78 -3.17223,1.09 -5.13183,1.09l-6.24744,0l0,-0.91c1.9111,-0.16 2.14392,-0.36 2.14392,-2.78l0,-9.54c0,-2.41 -0.22312,-2.57 -2.06631,-2.73l0,-0.91l7.60558,0l0,0.91c-2.00811,0.16 -2.21183,0.31 -2.21183,2.78l0,2.98l-0.0194,0zm4.66618,4.93c0,-2.98 -1.45515,-3.92 -3.57967,-3.92c-0.40744,0 -0.70817,0.03 -1.08651,0.08l0,5.56c0,1.87 0.53355,2.49 1.59096,2.49c1.26113,0 3.07522,-0.88 3.07522,-4.21m3.80279,5.27l0,-0.91c1.86259,-0.16 2.08571,-0.39 2.08571,-2.67l0,-9.86c0,-2.18 -0.22312,-2.36 -2.08571,-2.52l0,-0.91l7.52798,0l0,0.91c-1.86259,0.16 -2.06631,0.34 -2.06631,2.57l0,9.86c0,2.23 0.20372,2.46 2.06631,2.62l0,0.91l-7.52798,0z" fill="#f8db95" clip-path="url(#SVGID_2_)"/>
   <path stroke="null" id="svg_16" d="m323.04329,21.54l0,-0.91c2.01781,-0.16 2.22153,-0.36 2.22153,-2.78l0,-6.1c0,-0.93 0,-2.07 0.12611,-4.57l-0.07761,0l-6.47057,12.98c-0.20372,0.39 -0.22312,0.67 -0.22312,1.01l0,0.36l-5.8206,0l0,-0.91c1.9596,-0.16 2.19243,-0.42 2.19243,-2.88l0,-9.28c0,-2.52 -0.22312,-2.73 -2.19243,-2.88l0,-0.91l7.52798,0l0,0.91c-1.83349,0.16 -2.03721,0.31 -2.03721,2.78l0,5.3c0,1.04 0,2.41 -0.12611,5.16l0.0485,0l6.47057,-12.9c0.20372,-0.34 0.28133,-0.67 0.28133,-0.88l0,-0.37l5.7915,0l0,0.91c-1.9596,0.16 -2.19243,0.42 -2.19243,2.75l0,9.53c0,2.41 0.23282,2.62 2.16332,2.78l0,0.91l-7.68319,0l0,-0.01zm-4.42366,-20.35c0,-0.59 0.37834,-1.19 1.05741,-1.19c0.80518,0 1.05741,0.73 1.0089,1.22c0,0.7 0.32983,1.4 1.33874,1.4s1.30963,-0.7 1.30963,-1.4c-0.05821,-0.49 0.19402,-1.22 0.9992,-1.22c0.69847,0 1.05741,0.6 1.05741,1.19c0,1.53 -1.30963,2.44 -3.39535,2.44c-2.06631,0 -3.37595,-0.91 -3.37595,-2.44" fill="#f8db95" clip-path="url(#SVGID_2_)"/>
   <path stroke="null" id="svg_17" d="m344.71533,11.71c0.80518,-0.05 1.56186,-0.08 2.61927,-0.08c3.62817,0 5.8691,1.69 5.8691,4.62c0,2.13 -0.9313,3.43 -2.28944,4.26c-1.21262,0.75 -3.20133,1.04 -5.16093,1.04l-6.51907,0l0,-0.88c1.9402,-0.16 2.16332,-0.34 2.16332,-2.91l0,-9.35c0,-2.54 -0.22312,-2.7 -2.06631,-2.86l0,-0.88l12.00984,0c0,0.65 0.09701,2.44 0.22312,4.1l-0.9507,0.13c-0.30073,-1.11 -0.55296,-1.71 -0.9604,-2.31c-0.37834,-0.57 -0.85369,-0.78 -2.38645,-0.78l-1.56186,0c-0.9313,0 -0.9798,0 -0.9798,0.96l0,4.94l-0.0097,0zm4.8117,4.8c0,-2.75 -1.51336,-3.76 -3.64758,-3.76c-0.40744,0 -0.77608,0.03 -1.15442,0.05l0,5.19c0,2 0.45595,2.47 1.73648,2.47c1.17382,-0.01 3.06552,-0.97 3.06552,-3.95" fill="#f8db95" clip-path="url(#SVGID_2_)"/>
   <path stroke="null" id="svg_18" d="m364.36955,21.54l0,-0.91c1.48425,-0.23 1.61037,-0.54 1.21262,-1.69c-0.25223,-0.78 -0.63056,-1.89 -1.0089,-2.93l-4.8311,0c-0.28133,0.81 -0.60146,1.74 -0.91189,2.78c-0.37834,1.25 -0.30073,1.61 1.53276,1.84l0,0.91l-5.63628,0l0,-0.91c1.65887,-0.21 1.9887,-0.49 2.82299,-2.67l5.16093,-13.34l1.28053,-0.34c1.61037,4.54 3.17223,9.06 4.8117,13.52c0.85369,2.29 1.15442,2.62 2.76478,2.83l0,0.91l-7.19814,0zm-2.13422,-12.53l-0.07761,0c-0.70817,1.89 -1.33874,3.79 -1.9887,5.63l3.9289,0l-1.86259,-5.63z" fill="#f8db95" clip-path="url(#SVGID_2_)"/>
   <path stroke="null" id="svg_19" d="m391.95919,5.58c-1.9596,0.18 -2.11482,0.34 -2.11482,2.54l0,9.99c0,2.18 0.20372,2.34 2.11482,2.52l0,0.91l-7.68319,0l0,-0.91c1.9887,-0.18 2.19243,-0.34 2.19243,-2.54l0,-4.83l-6.87801,0l0,4.83c0,2.21 0.20372,2.36 2.06631,2.54l0,0.91l-7.50857,0l0,-0.91c1.84319,-0.18 2.06631,-0.34 2.06631,-2.54l0,-9.97c0,-2.21 -0.22312,-2.36 -2.16332,-2.54l0,-0.91l7.55708,0l0,0.91c-1.81409,0.18 -2.01781,0.34 -2.01781,2.54l0,3.81l6.87801,0l0,-3.81c0,-2.21 -0.20372,-2.36 -2.08571,-2.54l0,-0.91l7.57648,0l0,0.91z" fill="#f8db95" clip-path="url(#SVGID_2_)"/>
   <path stroke="null" id="svg_20" d="m407.63601,21.54c-1.86259,0 -2.59017,-0.81 -3.29834,-2.39c-0.34924,-0.75 -0.85369,-2.08 -1.40664,-3.61c-0.72757,-2.08 -1.73648,-2.6 -2.99761,-2.57l0,4.88c0,2.49 0.17462,2.62 2.03721,2.78l0,0.91l-7.52798,0l0,-0.91c1.89169,-0.16 2.11482,-0.29 2.11482,-2.73l0,-9.54c0,-2.49 -0.23282,-2.62 -2.11482,-2.78l0,-0.91l7.52798,0l0,0.91c-1.89169,0.16 -2.03721,0.29 -2.03721,2.78l0,3.61c1.23203,-0.03 2.16332,-0.23 3.02671,-1.12c0.75668,-0.73 1.28053,-1.82 2.11482,-3.84c0.83429,-1.92 1.76558,-2.73 2.96851,-2.73c0.9604,-0.03 1.53276,0.6 1.53276,1.3c0,0.62 -0.58206,0.91 -1.08651,0.93l-0.44625,0c-0.9604,0 -1.54246,0.47 -2.64837,2.75c-0.9604,1.98 -2.03721,2.73 -2.44465,2.93l0,0.08c1.35814,0.34 2.38645,1.01 3.24983,2.7c0.40744,0.78 0.9798,2.26 1.73648,3.79c0.70817,1.48 1.40664,1.74 2.59017,1.87l0,0.91l-2.8909,0z" fill="#f8db95" clip-path="url(#SVGID_2_)"/>
   <path stroke="null" id="svg_21" d="m102.92762,36.38c1.9887,0 3.39535,0.28 4.40425,1.01c1.18352,0.83 1.86259,2.13 1.86259,3.82c0,3.48 -2.49316,5.06 -5.16093,5.4c-0.37834,0.05 -0.75668,0.05 -1.02831,0.05l-1.71708,-0.44l0,3.58c0,2.21 0.22312,2.39 2.36704,2.57l0,0.88l-7.8093,0l0,-0.88c1.88199,-0.18 2.11482,-0.37 2.11482,-2.57l0,-9.94c0,-2.21 -0.22312,-2.39 -1.9887,-2.57l0,-0.91l6.95562,0zm-1.62977,8.83c0.30073,0.13 0.83429,0.26 1.35814,0.26c0.91189,0 2.92,-0.67 2.92,-4.18c0,-2.93 -1.59096,-3.89 -3.12372,-3.89c-0.48505,0 -0.78578,0.13 -0.9313,0.26c-0.17462,0.16 -0.22312,0.41 -0.22312,0.8l0,6.75z" fill="#f8db95" clip-path="url(#SVGID_2_)"/>
   <path stroke="null" id="svg_22" d="m125.00709,48.94c-0.17462,1.17 -0.67907,3.53 -0.88279,4.31l-12.84412,0l0,-0.91c2.14392,-0.18 2.39615,-0.34 2.39615,-2.54l0,-9.97c0,-2.26 -0.25223,-2.39 -2.03721,-2.54l0,-0.91l11.85462,0c0.0291,0.47 0.15522,2.29 0.25223,3.89l-0.9313,0.13c-0.22312,-0.91 -0.55296,-1.76 -1.0089,-2.23c-0.42684,-0.47 -1.10591,-0.65 -2.52226,-0.65l-1.20292,0c-0.9313,0 -1.03801,0.05 -1.03801,0.91l0,5.5l1.68797,0c2.11482,0 2.46405,-0.13 2.79389,-1.95l0.90219,0l0,5.22l-0.90219,0c-0.32983,-1.87 -0.64997,-1.97 -2.79389,-1.97l-1.68797,0l0,4.49c0,1.25 0.10671,1.89 0.60146,2.15c0.45595,0.21 1.30963,0.26 2.27003,0.26c1.30963,0 2.19243,-0.18 2.76478,-0.83c0.50445,-0.57 0.9604,-1.4 1.40664,-2.54l0.92159,0.18z" fill="#f8db95" clip-path="url(#SVGID_2_)"/>
   <path stroke="null" id="svg_23" d="m142.498,48.81c-0.32983,1.27 -0.9798,3.25 -1.40664,4.16c-0.65967,0.15 -2.96851,0.67 -4.68558,0.67c-6.69369,0 -9.46818,-4.49 -9.46818,-8.62c0,-5.35 3.94831,-9.03 9.97263,-9.03c2.03721,0 3.8998,0.54 4.57887,0.67c0.22312,1.43 0.40744,2.62 0.58206,4.29l-0.9313,0.18c-0.83429,-3.06 -2.77449,-3.97 -4.70498,-3.97c-3.64758,0 -5.66538,3.53 -5.66538,7.37c0,4.75 2.49316,7.89 5.91761,7.89c2.08571,0 3.64758,-1.38 4.93781,-4l0.87309,0.39z" fill="#f8db95" clip-path="url(#SVGID_2_)"/>
   <path stroke="null" id="svg_24" d="m154.27501,53.25l0,-0.91c1.9111,-0.15 2.11482,-0.34 2.11482,-2.88l0,-10.95c0,-1.01 -0.0485,-1.01 -1.0089,-1.01l-4.40425,0c-0.9604,0 -1.0089,0.05 -1.0089,0.93l0,11.03c0,2.54 0.20372,2.73 2.03721,2.88l0,0.91l-7.57648,0l0,-0.91c1.9693,-0.15 2.16332,-0.34 2.16332,-2.88l0,-9.39c0,-2.44 -0.20372,-2.62 -2.26033,-2.78l0,-0.91l17.64612,0l0,0.91c-2.00811,0.16 -2.21183,0.34 -2.21183,2.83l0,9.34c0,2.54 0.20372,2.73 2.16332,2.88l0,0.91l-7.65409,0z" fill="#f8db95" clip-path="url(#SVGID_2_)"/>
   <path stroke="null" id="svg_25" d="m179.92445,37.29c-1.78498,0.28 -2.06631,0.67 -2.8909,2.54c-0.91189,2.1 -3.37595,7.84 -4.25874,9.81c-1.58126,3.55 -3.12372,4.26 -4.53037,4.26c-1.0089,0 -2.00811,-0.63 -2.00811,-1.64c0.0194,-0.52 0.30073,-0.91 0.64997,-1.12c0.37834,-0.21 0.88279,-0.21 1.51336,0.18c0.39774,0.28 0.9604,0.5 1.32904,0.5c0.63056,0 1.35814,-0.78 1.35814,-1.77c0,-0.52 -0.20372,-1.09 -0.58206,-1.9c-0.67907,-1.43 -3.77369,-8.02 -4.43336,-9.32c-0.50445,-0.99 -0.72757,-1.32 -2.36704,-1.56l0,-0.91l7.05263,0l0,0.91l-0.78578,0.18c-0.50445,0.16 -0.58206,0.44 -0.25223,1.17l3.42445,7.58c0.9604,-2.41 1.86259,-4.62 2.69688,-7.01c0.37834,-1.12 0.32983,-1.53 -0.47535,-1.71l-0.90219,-0.21l0,-0.91l5.46166,0l0,0.93z" fill="#f8db95" clip-path="url(#SVGID_2_)"/>
   <path stroke="null" id="svg_26" d="m187.09349,43.42c0.80518,-0.05 1.56186,-0.08 2.61927,-0.08c3.62817,0 5.8691,1.69 5.8691,4.62c0,2.13 -0.9313,3.43 -2.28944,4.26c-1.21262,0.75 -3.20133,1.04 -5.16093,1.04l-6.51907,0l0,-0.88c1.9402,-0.16 2.16332,-0.34 2.16332,-2.91l0,-9.34c0,-2.54 -0.22312,-2.7 -2.06631,-2.86l0,-0.88l12.00984,0c0,0.65 0.09701,2.44 0.22312,4.1l-0.9507,0.13c-0.30073,-1.12 -0.55296,-1.71 -0.9604,-2.31c-0.37834,-0.57 -0.85369,-0.78 -2.39615,-0.78l-1.56186,0c-0.9313,0 -0.9798,0 -0.9798,0.96l0,4.93zm4.80199,4.8c0,-2.75 -1.51336,-3.77 -3.64758,-3.77c-0.40744,0 -0.77608,0.03 -1.15442,0.05l0,5.19c0,2 0.45595,2.47 1.73648,2.47c1.18352,0 3.06552,-0.96 3.06552,-3.94" fill="#f8db95" clip-path="url(#SVGID_2_)"/>
   <path stroke="null" id="svg_27" d="m205.38957,53.25l0,-0.91c1.9111,-0.15 2.11482,-0.36 2.11482,-2.88l0,-10.54c0,-1.32 -0.0485,-1.4 -0.90219,-1.4l-2.69688,0c-0.72757,0 -0.83429,0.21 -0.83429,1.01c0,6.02 -0.67907,11.37 -2.24093,13.86c-0.55296,0.88 -1.10591,1.27 -1.71708,1.27c-0.75668,0 -1.30963,-0.1 -1.65887,-0.23l0,-0.59c1.28053,-0.88 1.9596,-1.69 2.59017,-3.17c1.0089,-2.26 1.61037,-6.23 1.61037,-10.8c0,-1.12 -0.34924,-1.45 -2.28944,-1.58l0,-0.91l13.6008,0l0,0.91c-1.89169,0.16 -2.09542,0.36 -2.09542,2.28l0,9.89c0,2.52 0.20372,2.73 2.09542,2.88l0,0.91l-7.57648,0z" fill="#f8db95" clip-path="url(#SVGID_2_)"/>
   <path stroke="null" id="svg_28" d="m225.70347,53.25l0,-0.91c2.01781,-0.15 2.22153,-0.36 2.22153,-2.78l0,-6.1c0,-0.93 0,-2.08 0.12611,-4.57l-0.07761,0l-6.47057,12.98c-0.20372,0.39 -0.22312,0.68 -0.22312,1.01l0,0.37l-5.8206,0l0,-0.91c1.9596,-0.15 2.19243,-0.41 2.19243,-2.88l0,-9.29c0,-2.52 -0.22312,-2.73 -2.19243,-2.88l0,-0.91l7.52798,0l0,0.91c-1.83349,0.16 -2.03721,0.31 -2.03721,2.78l0,5.29c0,1.04 0,2.41 -0.12611,5.17l0.0485,0l6.47057,-12.9c0.20372,-0.34 0.28133,-0.68 0.28133,-0.88l0,-0.37l5.7915,0l0,0.91c-1.9596,0.16 -2.19243,0.41 -2.19243,2.75l0,9.52c0,2.42 0.23282,2.62 2.17302,2.78l0,0.91l-7.69289,0z" fill="#f8db95" clip-path="url(#SVGID_2_)"/>
   <path stroke="null" id="svg_29" d="m249.00527,53.25c-1.86259,0 -2.59017,-0.8 -3.29834,-2.39c-0.34924,-0.75 -0.85369,-2.08 -1.40664,-3.61c-0.72757,-2.08 -1.73648,-2.59 -2.99761,-2.57l0,4.88c0,2.49 0.17462,2.62 2.04691,2.78l0,0.91l-7.52798,0l0,-0.91c1.89169,-0.15 2.11482,-0.28 2.11482,-2.72l0,-9.55c0,-2.49 -0.23282,-2.62 -2.11482,-2.78l0,-0.91l7.52798,0l0,0.91c-1.89169,0.16 -2.04691,0.29 -2.04691,2.78l0,3.61c1.23203,-0.02 2.16332,-0.23 3.02671,-1.12c0.75668,-0.72 1.28053,-1.82 2.11482,-3.84c0.83429,-1.92 1.76558,-2.72 2.96851,-2.72c0.9507,-0.03 1.53276,0.6 1.53276,1.3c0,0.62 -0.58206,0.91 -1.08651,0.93l-0.45595,0c-0.9604,0 -1.53276,0.47 -2.64837,2.75c-0.9604,1.97 -2.03721,2.73 -2.44465,2.93l0,0.08c1.35814,0.34 2.38645,1.01 3.24983,2.7c0.40744,0.78 0.9798,2.26 1.73648,3.79c0.70817,1.48 1.40664,1.74 2.59017,1.87l0,0.91l-2.8812,0l0,-0.01z" fill="#f8db95" clip-path="url(#SVGID_2_)"/>
   <path stroke="null" id="svg_30" d="m264.03212,53.25l0,-0.91c2.01781,-0.15 2.22153,-0.36 2.22153,-2.78l0,-6.1c0,-0.93 0,-2.08 0.12611,-4.57l-0.07761,0l-6.47057,12.98c-0.20372,0.39 -0.22312,0.68 -0.22312,1.01l0,0.37l-5.8206,0l0,-0.91c1.9596,-0.15 2.19243,-0.41 2.19243,-2.88l0,-9.29c0,-2.52 -0.22312,-2.73 -2.19243,-2.88l0,-0.91l7.52798,0l0,0.91c-1.83349,0.16 -2.03721,0.31 -2.03721,2.78l0,5.29c0,1.04 0,2.41 -0.12611,5.17l0.0485,0l6.47057,-12.9c0.20372,-0.34 0.28133,-0.68 0.28133,-0.88l0,-0.37l5.7915,0l0,0.91c-1.9596,0.16 -2.19243,0.41 -2.19243,2.75l0,9.52c0,2.42 0.22312,2.62 2.16332,2.78l0,0.91l-7.68319,0z" fill="#f8db95" clip-path="url(#SVGID_2_)"/>
   <path stroke="null" id="svg_31" d="m285.69445,43.42c0.80518,-0.05 1.56186,-0.08 2.61927,-0.08c3.62817,0 5.8691,1.69 5.8691,4.62c0,2.13 -0.9313,3.43 -2.28944,4.26c-1.21262,0.75 -3.20133,1.04 -5.16093,1.04l-6.51907,0l0,-0.88c1.9402,-0.16 2.16332,-0.34 2.16332,-2.91l0,-9.34c0,-2.54 -0.22312,-2.7 -2.06631,-2.86l0,-0.88l12.00984,0c0,0.65 0.09701,2.44 0.22312,4.1l-0.9507,0.13c-0.30073,-1.12 -0.55296,-1.71 -0.9604,-2.31c-0.37834,-0.57 -0.85369,-0.78 -2.38645,-0.78l-1.56186,0c-0.9313,0 -0.9798,0 -0.9798,0.96l0,4.93l-0.0097,0zm4.8117,4.8c0,-2.75 -1.51336,-3.77 -3.64758,-3.77c-0.40744,0 -0.77608,0.03 -1.15442,0.05l0,5.19c0,2 0.45595,2.47 1.73648,2.47c1.18352,0 3.06552,-0.96 3.06552,-3.94" fill="#f8db95" clip-path="url(#SVGID_2_)"/>
   <path stroke="null" id="svg_32" d="m309.88874,48.94c-0.17462,1.17 -0.67907,3.53 -0.88279,4.31l-12.84412,0l0,-0.91c2.14392,-0.18 2.39615,-0.34 2.39615,-2.54l0,-9.97c0,-2.26 -0.25223,-2.39 -2.03721,-2.54l0,-0.91l11.85462,0c0.0291,0.47 0.15522,2.29 0.25223,3.89l-0.9313,0.13c-0.22312,-0.91 -0.55296,-1.76 -1.0089,-2.23c-0.42684,-0.47 -1.10591,-0.65 -2.52226,-0.65l-1.20292,0c-0.9313,0 -1.03801,0.05 -1.03801,0.91l0,5.5l1.68797,0c2.11482,0 2.46405,-0.13 2.79389,-1.95l0.90219,0l0,5.22l-0.90219,0c-0.32983,-1.87 -0.64997,-1.97 -2.79389,-1.97l-1.68797,0l0,4.49c0,1.25 0.09701,1.89 0.60146,2.15c0.45595,0.21 1.30963,0.26 2.27003,0.26c1.30963,0 2.19243,-0.18 2.76478,-0.83c0.50445,-0.57 0.9604,-1.4 1.41635,-2.54l0.91189,0.18z" fill="#f8db95" clip-path="url(#SVGID_2_)"/>
   <path stroke="null" id="svg_33" d="m319.72555,53.25l0,-0.91c1.9111,-0.15 2.11482,-0.36 2.11482,-2.88l0,-10.54c0,-1.32 -0.0485,-1.4 -0.91189,-1.4l-2.69688,0c-0.72757,0 -0.83429,0.21 -0.83429,1.01c0,6.02 -0.67907,11.37 -2.24093,13.86c-0.55296,0.88 -1.10591,1.27 -1.70738,1.27c-0.75668,0 -1.30963,-0.1 -1.65887,-0.23l0,-0.59c1.28053,-0.88 1.9596,-1.69 2.59017,-3.17c1.0089,-2.26 1.61037,-6.23 1.61037,-10.8c0,-1.12 -0.34924,-1.45 -2.28944,-1.58l0,-0.91l13.6008,0l0,0.91c-1.89169,0.16 -2.09542,0.36 -2.09542,2.28l0,9.89c0,2.52 0.20372,2.73 2.09542,2.88l0,0.91l-7.57648,0z" fill="#f8db95" clip-path="url(#SVGID_2_)"/>
   <path stroke="null" id="svg_34" d="m339.00144,53.25l0,-0.91c1.48425,-0.23 1.61037,-0.54 1.21262,-1.69c-0.25223,-0.78 -0.63056,-1.89 -1.0089,-2.93l-4.8311,0c-0.28133,0.8 -0.60146,1.74 -0.91189,2.78c-0.37834,1.25 -0.30073,1.61 1.53276,1.84l0,0.91l-5.63628,0l0,-0.91c1.65887,-0.21 1.9887,-0.49 2.82299,-2.67l5.16093,-13.34l1.28053,-0.34c1.61037,4.54 3.17223,9.06 4.8117,13.53c0.85369,2.28 1.15442,2.62 2.76478,2.83l0,0.91l-7.19814,0l0,-0.01zm-2.13422,-12.53l-0.07761,0c-0.70817,1.9 -1.33874,3.79 -1.9887,5.63l3.9289,0l-1.86259,-5.63z" fill="#f8db95" clip-path="url(#SVGID_2_)"/>
   <path stroke="null" id="svg_35" d="m355.81327,36.38c1.9887,0 3.39535,0.28 4.40425,1.01c1.18352,0.83 1.86259,2.13 1.86259,3.82c0,3.48 -2.49316,5.06 -5.16093,5.4c-0.37834,0.05 -0.75668,0.05 -1.02831,0.05l-1.71708,-0.44l0,3.58c0,2.21 0.22312,2.39 2.36704,2.57l0,0.88l-7.8093,0l0,-0.88c1.89169,-0.18 2.11482,-0.37 2.11482,-2.57l0,-9.94c0,-2.21 -0.22312,-2.39 -1.9887,-2.57l0,-0.91l6.95562,0zm-1.63947,8.83c0.30073,0.13 0.83429,0.26 1.35814,0.26c0.91189,0 2.92,-0.67 2.92,-4.18c0,-2.93 -1.58126,-3.89 -3.12372,-3.89c-0.48505,0 -0.78578,0.13 -0.9313,0.26c-0.17462,0.16 -0.22312,0.41 -0.22312,0.8l0,6.75z" fill="#f8db95" clip-path="url(#SVGID_2_)"/>
   <path stroke="null" id="svg_36" d="m380.25979,37.29c-1.78498,0.28 -2.06631,0.67 -2.8909,2.54c-0.91189,2.1 -3.37595,7.84 -4.25874,9.81c-1.59096,3.55 -3.12372,4.26 -4.53037,4.26c-1.0089,0 -2.00811,-0.63 -2.00811,-1.64c0.0291,-0.52 0.30073,-0.91 0.64997,-1.12c0.37834,-0.21 0.88279,-0.21 1.51336,0.18c0.39774,0.28 0.9604,0.5 1.33874,0.5c0.63056,0 1.35814,-0.78 1.35814,-1.77c0,-0.52 -0.20372,-1.09 -0.58206,-1.9c-0.67907,-1.43 -3.77369,-8.02 -4.43336,-9.32c-0.50445,-0.99 -0.72757,-1.32 -2.36704,-1.56l0,-0.91l7.05263,0l0,0.91l-0.78578,0.18c-0.50445,0.16 -0.57236,0.44 -0.25223,1.17l3.42445,7.58c0.9604,-2.41 1.86259,-4.62 2.69688,-7.01c0.37834,-1.12 0.32983,-1.53 -0.47535,-1.71l-0.90219,-0.21l0,-0.91l5.46166,0l0,0.93l-0.0097,0z" fill="#f8db95" clip-path="url(#SVGID_2_)"/>
   <path stroke="null" id="svg_37" d="m396.53806,48.81c-0.32983,1.27 -0.9798,3.25 -1.40664,4.16c-0.65967,0.15 -2.96851,0.67 -4.68558,0.67c-6.70339,0 -9.46818,-4.49 -9.46818,-8.62c0,-5.35 3.95801,-9.03 9.97263,-9.03c2.03721,0 3.8998,0.54 4.57887,0.67c0.22312,1.43 0.40744,2.62 0.58206,4.29l-0.9313,0.18c-0.83429,-3.06 -2.77449,-3.97 -4.70498,-3.97c-3.64758,0 -5.66538,3.53 -5.66538,7.37c0,4.75 2.49316,7.89 5.91761,7.89c2.08571,0 3.64758,-1.38 4.93781,-4l0.87309,0.39z" fill="#f8db95" clip-path="url(#SVGID_2_)"/>
   <path stroke="null" id="svg_38" d="m403.93023,43.05c0.85369,-0.08 1.76558,-0.13 2.61927,-0.13c3.52146,0 5.7915,1.69 5.7915,4.83c0,2.29 -1.05741,3.66 -2.39615,4.44c-1.30963,0.75 -3.24983,1.06 -5.20944,1.06l-6.26685,0l0,-0.91c1.9111,-0.16 2.14392,-0.34 2.14392,-2.72l0,-9.55c0,-2.42 -0.22312,-2.62 -2.06631,-2.78l0,-0.91l7.55708,0l0,0.91c-1.9596,0.15 -2.16332,0.36 -2.16332,2.83l0,2.93l-0.0097,0zm4.76319,4.96c0,-3.09 -1.70738,-3.95 -3.50206,-3.95c-0.42684,0 -0.88279,0.03 -1.26113,0.08l0,5.66c0,1.92 0.53355,2.36 1.59096,2.36c1.38724,0 3.17223,-0.98 3.17223,-4.15" fill="#f8db95" clip-path="url(#SVGID_2_)"/>
  </g>
 </g>
</svg>